<svg display="none" xmlns="http://www.w3.org/2000/svg">
    <symbol id="geo" viewBox="0 0 12 14">
        <path d="M9.98212 9.9355L5.83397 14L1.68582 9.87098C-0.582694 7.61292 -0.582694 3.9355 1.68582 1.67743C3.95434 -0.580629 7.64879 -0.580629 9.91731 1.67743C12.2506 4.00001 12.2506 7.61292 9.98212 9.9355ZM5.83397 7.74195C6.93582 7.74195 7.77842 6.90324 7.77842 5.80647C7.77842 4.70969 6.93582 3.87098 5.83397 3.87098C4.73212 3.87098 3.88953 4.70969 3.88953 5.80647C3.88953 6.90324 4.73212 7.74195 5.83397 7.74195Z" fill="#7B94B0" />
    </symbol>

    <symbol id="wezom_logo" viewBox="0 0 114 41">
        <path fill-rule="evenodd" clip-rule="evenodd" d="M111.763 2.45309C110.368 1.06641 108.483 0.28833 106.519 0.28833C104.554 0.28833 102.67 1.06641 101.275 2.45309L76.3845 27.789C74.9665 29.2537 74.1733 31.2146 74.1733 33.2557C74.1733 35.2968 74.9665 37.2576 76.3845 38.7223C77.0757 39.4398 77.904 40.0104 78.8199 40.4002C79.7359 40.7899 80.7207 40.9907 81.7157 40.9907C82.7107 40.9907 83.6956 40.7899 84.6115 40.4002C85.5274 40.0104 86.3557 39.4398 87.0469 38.7223L111.763 13.4215C113.183 11.9508 113.977 9.98417 113.977 7.93728C113.977 5.89039 113.183 3.92373 111.763 2.45309Z" fill="#2C9323" />
        <path fill-rule="evenodd" clip-rule="evenodd" d="M51.7037 2.45307C52.3974 1.73995 53.2264 1.17322 54.142 0.786259C55.0576 0.399302 56.0412 0.199951 57.0349 0.199951C58.0285 0.199951 59.0121 0.399302 59.9277 0.786259C60.8433 1.17322 61.6723 1.73995 62.366 2.45307L87.0818 27.789C88.4998 29.2537 89.293 31.2145 89.293 33.2556C89.293 35.2967 88.4998 37.2576 87.0818 38.7223C86.3906 39.4398 85.5623 40.0104 84.6464 40.4001C83.7305 40.7899 82.7456 40.9907 81.7506 40.9907C80.7556 40.9907 79.7707 40.7899 78.8548 40.4001C77.9389 40.0104 77.1106 39.4398 76.4194 38.7223L51.7037 13.4215C50.2752 11.9551 49.4755 9.98682 49.4755 7.93726C49.4755 5.88771 50.2752 3.91944 51.7037 2.45307Z" fill="#2C9323" />
        <path fill-rule="evenodd" clip-rule="evenodd" d="M62.4011 2.45297C61.7099 1.73548 60.8816 1.16487 59.9657 0.775144C59.0497 0.38542 58.0649 0.18457 57.0699 0.18457C56.0748 0.18457 55.09 0.38542 54.1741 0.775144C53.2582 1.16487 52.4299 1.73548 51.7387 2.45297L27.023 27.7889C25.6049 29.2536 24.8118 31.2144 24.8118 33.2555C24.8118 35.2966 25.6049 37.2575 27.023 38.7222C27.7167 39.4353 28.5457 40.0021 29.4613 40.389C30.3769 40.776 31.3605 40.9753 32.3541 40.9753C33.3478 40.9753 34.3314 40.776 35.247 40.389C36.1626 40.0021 36.9916 39.4353 37.6853 38.7222L62.4011 13.3863C63.8191 11.9216 64.6123 9.96073 64.6123 7.91964C64.6123 5.87854 63.8191 3.91771 62.4011 2.45297Z" fill="#2C9323" />
        <path fill-rule="evenodd" clip-rule="evenodd" d="M2.2024 2.27778C2.8961 1.56466 3.72517 0.997923 4.64076 0.610966C5.55636 0.224009 6.53995 0.0246582 7.53359 0.0246582C8.52723 0.0246582 9.51083 0.224009 10.4264 0.610966C11.342 0.997923 12.1711 1.56466 12.8648 2.27778L37.5805 27.6137C38.9986 29.0784 39.7917 31.0392 39.7917 33.0803C39.7917 35.1214 38.9986 37.0823 37.5805 38.547C36.8868 39.2601 36.0577 39.8269 35.1421 40.2138C34.2266 40.6008 33.243 40.8001 32.2493 40.8001C31.2557 40.8001 30.2721 40.6008 29.3565 40.2138C28.4409 39.8269 27.6118 39.2601 26.9181 38.547L2.2024 13.2111C0.78434 11.7464 -0.00878906 9.78554 -0.00878906 7.74445C-0.00878906 5.70335 0.78434 3.74252 2.2024 2.27778Z" fill="#2C9323" />
    </symbol>

    <symbol id="search" viewBox="0 0 32 32">
        <circle cx="14" cy="14" r="10" stroke="#202454" stroke-width="2" stroke-miterlimit="10" />
        <line x1="21.4142" y1="21" x2="28" y2="27.5858" stroke="#202454" stroke-width="2" stroke-miterlimit="10" stroke-linecap="round" />
    </symbol>

    <symbol id="human" viewBox="0 0 22 26">
        <g clip-path="url(#clip0)">
            <circle cx="11" cy="8" r="6" stroke="#202454" stroke-width="2" stroke-miterlimit="10" />
            <path d="M1 24C1 20.6863 3.68629 18 7 18H15C18.3137 18 21 20.6863 21 24V27H1V24Z" stroke="#202454" stroke-width="2" stroke-miterlimit="10" />
        </g>
    </symbol>

    <symbol id="like" viewBox="0 0 32 32">
        <path d="M15.8851 6.79804L16.5572 7.38524L17.2167 6.78397C19.9291 4.31118 24.3252 4.42616 26.9257 7.02267C29.6458 9.73872 29.6506 13.9816 27.1757 16.7006L16.5346 27.5785L5.77895 16.8391C3.29891 13.9841 3.44034 9.73856 6.02511 7.1577C8.76372 4.42325 13.0358 4.30874 15.8851 6.79804Z" stroke="#202454" stroke-width="2" />
    </symbol>

    <symbol id="basket" viewBox="0 0 32 32">
        <path d="M2.00005 12.5999C1.90005 12.0999 2.30005 11.4999 2.80005 11.3999C2.90005 11.3999 2.90005 11.3999 3.00005 11.3999H27.6C28.2 11.3999 28.6 11.7999 28.6 12.3999C28.6 12.4999 28.6 12.4999 28.6 12.5999L26 27.5999C25.9 28.0999 25.5 28.3999 25 28.3999H5.60005C5.10005 28.3999 4.70005 28.0999 4.60005 27.5999L2.00005 12.5999Z" stroke="#202454" stroke-width="2" stroke-miterlimit="10" />
        <path d="M11.8 2.3999L7.80005 10.3999M18.8 2.3999L22.8 10.3999L18.8 2.3999Z" stroke="#202454" stroke-width="2" stroke-miterlimit="10" stroke-linecap="round" stroke-linejoin="round" />
    </symbol>

    <symbol id="facebook" viewBox="0 0 12 24">
        <path d="M8 13.8H10.8571L12 9H8V6.6C8 5.364 8 4.2 10.2857 4.2H12V0.168C11.6274 0.1164 10.2206 0 8.73486 0C5.632 0 3.42857 1.9884 3.42857 5.64V9H0V13.8H3.42857V24H8V13.8Z" fill="white" />
    </symbol>

    <symbol id="instagram" viewBox="0 0 24 24">
        <path d="M11.625 8.4C10.7001 8.4 9.813 8.77928 9.15897 9.45442C8.50493 10.1295 8.1375 11.0452 8.1375 12C8.1375 12.9548 8.50493 13.8705 9.15897 14.5456C9.813 15.2207 10.7001 15.6 11.625 15.6C12.5499 15.6 13.437 15.2207 14.091 14.5456C14.7451 13.8705 15.1125 12.9548 15.1125 12C15.1125 11.0452 14.7451 10.1295 14.091 9.45442C13.437 8.77928 12.5499 8.4 11.625 8.4ZM11.625 6C13.1666 6 14.645 6.63214 15.7351 7.75736C16.8251 8.88258 17.4375 10.4087 17.4375 12C17.4375 13.5913 16.8251 15.1174 15.7351 16.2426C14.645 17.3679 13.1666 18 11.625 18C10.0834 18 8.605 17.3679 7.51494 16.2426C6.42489 15.1174 5.8125 13.5913 5.8125 12C5.8125 10.4087 6.42489 8.88258 7.51494 7.75736C8.605 6.63214 10.0834 6 11.625 6ZM19.1812 5.7C19.1812 6.09783 19.0282 6.47936 18.7556 6.76066C18.4831 7.04197 18.1135 7.2 17.7281 7.2C17.3427 7.2 16.9731 7.04197 16.7006 6.76066C16.4281 6.47936 16.275 6.09783 16.275 5.7C16.275 5.30218 16.4281 4.92064 16.7006 4.63934C16.9731 4.35804 17.3427 4.2 17.7281 4.2C18.1135 4.2 18.4831 4.35804 18.7556 4.63934C19.0282 4.92064 19.1812 5.30218 19.1812 5.7ZM11.625 2.4C8.74897 2.4 8.27933 2.4084 6.94129 2.4696C6.02989 2.514 5.41841 2.64 4.85111 2.868C4.34659 3.0696 3.98272 3.3108 3.59561 3.7116C3.23176 4.07448 2.952 4.5175 2.77721 5.0076C2.55634 5.5956 2.43428 6.2256 2.39243 7.1652C2.33198 8.49 2.325 8.9532 2.325 12C2.325 14.9688 2.33314 15.4536 2.39243 16.8348C2.43544 17.7744 2.5575 18.4068 2.77721 18.9912C2.97484 19.5132 3.20734 19.8888 3.59329 20.2872C3.98505 20.6904 4.34891 20.9316 4.84879 21.1308C5.42306 21.36 6.03454 21.4872 6.94129 21.5304C8.22469 21.5928 8.67341 21.6 11.625 21.6C14.501 21.6 14.9707 21.5916 16.3087 21.5304C17.2178 21.486 17.8304 21.36 18.3977 21.1332C18.9011 20.9304 19.2673 20.6892 19.6532 20.2908C20.045 19.8864 20.2787 19.5108 20.4716 18.9948C20.6925 18.4032 20.8157 17.7708 20.8576 16.8348C20.918 15.51 20.925 15.0468 20.925 12C20.925 9.0312 20.9169 8.5464 20.8576 7.1652C20.8146 6.2268 20.6925 5.5932 20.4716 5.0076C20.2964 4.518 20.0172 4.07515 19.6544 3.7116C19.303 3.33582 18.8738 3.047 18.3989 2.8668C17.8293 2.6388 17.2178 2.5128 16.3087 2.4696C15.0253 2.4072 14.5766 2.4 11.625 2.4ZM11.625 0C14.7835 0 15.1776 0.0119999 16.4168 0.0719999C17.6549 0.132 18.4977 0.3324 19.2394 0.63C20.0066 0.9348 20.653 1.3476 21.2993 2.0136C21.8904 2.61348 22.3478 3.33911 22.6397 4.14C22.9268 4.9044 23.1221 5.7756 23.1803 7.0536C23.2349 8.3328 23.25 8.7396 23.25 12C23.25 15.2604 23.2384 15.6672 23.1803 16.9464C23.1221 18.2244 22.9268 19.0944 22.6397 19.86C22.3487 20.6613 21.8912 21.3871 21.2993 21.9864C20.718 22.5964 20.0151 23.0685 19.2394 23.37C18.4989 23.6664 17.6549 23.868 16.4168 23.928C15.1776 23.9844 14.7835 24 11.625 24C8.46649 24 8.0724 23.988 6.83317 23.928C5.59511 23.868 4.7523 23.6664 4.01062 23.37C3.23445 23.0694 2.53138 22.5971 1.95068 21.9864C1.35943 21.3866 0.90202 20.661 0.610313 19.86C0.322013 19.0956 0.127875 18.2244 0.0697499 16.9464C0.0151124 15.6672 0 15.2604 0 12C0 8.7396 0.0116249 8.3328 0.0697499 7.0536C0.127875 5.7744 0.322013 4.9056 0.610313 4.14C0.901212 3.33862 1.35873 2.61279 1.95068 2.0136C2.53154 1.40308 3.23457 0.930875 4.01062 0.63C4.7523 0.3324 5.59395 0.132 6.83317 0.0719999C8.0724 0.0155999 8.46649 0 11.625 0Z" fill="white" />
    </symbol>

    <symbol id="viber" viewBox="0 0 23 24">
        <path d="M21.3 13.05C21.6 10.35 21.6 8.1 21.3 6.15C21.0682 4.60457 20.3295 3.17994 19.2 2.1L18 1.35L15.3 0.45C14.1 0.15 12.6 0 11.1 0H10.5C8.41176 0.0684215 6.34265 0.421685 4.35 1.05C3.45 1.35 2.85 1.8 2.25 2.25C0.75 3.75 0.15 6 0 9.15V11.25L0.15 13.5L0.9 15.75C1.2826 16.5698 1.84564 17.2925 2.54698 17.8639C3.24833 18.4354 4.06982 18.8409 4.95 19.05C4.99582 20.7001 5.04582 22.3501 5.1 24L5.55 23.85L9.15 19.5C11.8806 19.6285 14.6143 19.3248 17.25 18.6C17.8573 18.2626 18.4574 17.9126 19.05 17.55L20.1 16.5L20.85 15L21.3 12.9V13.05ZM14.1 9C14.1 9.3 13.95 9.45 13.65 9.45L13.5 9C13.5 7.8 12.9 7.2 11.85 7.2L11.55 7.05V6.6H11.85C13.35 6.6 14.1 7.35 14.25 8.85L14.1 9ZM15.15 9.6C15.15 8.55 14.85 7.5 14.1 6.75C13.35 6 12.45 5.55 11.1 5.55L10.8 5.25V4.95L11.25 4.8C12.75 4.8 13.8 5.4 14.55 6.3C15.45 7.2 15.75 8.4 15.75 9.6V9.9H15.3L15.15 9.6ZM17.55 10.35L17.4 10.65H17.1L16.95 10.35C16.95 8.25 16.2 6.75 15 5.55C14.4163 4.95352 13.7147 4.48535 12.9398 4.17541C12.165 3.86547 11.334 3.72058 10.5 3.75C10.35 3.75 10.2 3.75 10.2 3.45C10.2 3.15 10.35 3 10.5 3C11.4386 2.99979 12.3677 3.18699 13.233 3.55063C14.0983 3.91427 14.8822 4.44702 15.5389 5.11765C16.1955 5.78827 16.7117 6.58326 17.057 7.45599C17.4024 8.32873 17.57 9.26164 17.55 10.2V10.35ZM16.95 15.45L15.75 16.95C15.3 17.25 14.7 17.4 14.25 17.1C12.3138 16.3677 10.4947 15.3571 8.85 14.1C7.28909 12.889 6.00963 11.3537 5.1 9.6C4.60082 8.72544 4.15014 7.82408 3.75 6.9V6.75C3.6 6.15 3.75 5.7 4.05 5.25L5.55 3.9C6 3.75 6.45 3.9 6.75 4.2C7.27583 5.01635 7.82607 5.81672 8.4 6.6C8.85 7.2 8.7 7.65 8.4 8.1L7.65 8.4L7.35 8.7V9.6L7.95 10.5L8.7 11.7L9.9 12.75L11.7 13.65C12 13.65 12.3 13.65 12.45 13.35L13.05 12.75C13.35 12.3 13.8 12.15 14.4 12.45L16.8 14.25C17.1 14.55 17.25 15 16.95 15.45Z" fill="white" />
    </symbol>

    <symbol id="chat" viewBox="0 0 40 40">
        <path d="M16.6667 5H23.3333C26.8696 5 30.2609 6.40476 32.7614 8.90524C35.2619 11.4057 36.6667 14.7971 36.6667 18.3333C36.6667 21.8696 35.2619 25.2609 32.7614 27.7614C30.2609 30.2619 26.8696 31.6667 23.3333 31.6667V37.5C15 34.1667 3.33334 29.1667 3.33334 18.3333C3.33334 14.7971 4.7381 11.4057 7.23858 8.90524C9.73907 6.40476 13.1305 5 16.6667 5Z" fill="#E77E42" />
    </symbol>

    <symbol id="post-us" viewBox="0 0 40 40">
        <path d="M8.33335 8H32.3333C32.687 8 33.0261 8.14048 33.2762 8.39052C33.5262 8.64057 33.6667 8.97971 33.6667 9.33333V30.6667C33.6667 31.0203 33.5262 31.3594 33.2762 31.6095C33.0261 31.8595 32.687 32 32.3333 32H8.33335C7.97973 32 7.64059 31.8595 7.39054 31.6095C7.14049 31.3594 7.00002 31.0203 7.00002 30.6667V9.33333C7.00002 8.97971 7.14049 8.64057 7.39054 8.39052C7.64059 8.14048 7.97973 8 8.33335 8ZM31 13.6507L20.4293 23.1173L9.66668 13.6213V29.3333H31V13.6507ZM10.348 10.6667L20.4147 19.5493L30.336 10.6667H10.348Z" fill="#E77E42" />
    </symbol>

    <symbol id="vector" viewBox="0 0 9 14">
        <path d="M1 1L7 7L1 13" stroke="white" stroke-width="2" />
    </symbol>

    <symbol id="portmone" viewBox="0 0 85 28">
        <path d="M84.7863 0.0966797H0V27.4471H84.7863V0.0966797Z" fill="#FF0000" />
        <path d="M5.65244 11.3104L7.38463 10.6722V11.4927C7.84047 10.8546 8.56981 10.5811 9.29916 10.5811C10.849 10.5811 12.0342 11.8574 12.0342 13.4073C12.0342 13.4984 12.0342 13.4984 12.0342 13.5896C12.2165 15.0483 11.1225 16.4158 9.57266 16.5981C9.4815 16.5981 9.39033 16.5981 9.29916 16.5981C8.56981 16.5981 7.84047 16.2335 7.38463 15.6865V18.3303H5.65244V11.3104ZM10.2108 13.5896C10.302 12.7691 9.755 12.0397 9.02565 11.9486C8.29631 11.8574 7.4758 12.4044 7.38463 13.1338C7.38463 13.2249 7.38463 13.4073 7.38463 13.4984C7.29346 14.3189 7.84047 15.0483 8.56981 15.1395C9.29916 15.2306 10.1197 14.6836 10.2108 13.9543C10.2108 13.8631 10.2108 13.6808 10.2108 13.5896Z" fill="white" />
        <path d="M18.8718 10.5811H20.604V11.5839C20.9687 10.7634 21.5157 10.5811 22.6097 10.5811V12.0397H22.5185C21.3333 12.0397 20.6952 12.9514 20.6952 14.4101V16.507H18.963V10.5811H18.8718Z" fill="white" />
        <path d="M23.7949 14.866V12.0398H23.0655V10.5811H23.7949V9.66943L25.5271 9.03125V10.5811H26.9858V12.0398H25.5271V14.5013C25.5271 14.866 25.7094 15.0483 25.9829 15.0483C26.2564 15.0483 26.5299 14.9572 26.7122 14.866V16.2335C26.3476 16.507 25.8917 16.5982 25.4359 16.5982C24.433 16.507 23.7949 16.1424 23.7949 14.866Z" fill="white" />
        <path d="M27.5328 10.5814H29.1738V11.4019C29.5385 10.8549 30.1766 10.4902 30.8148 10.4902C31.453 10.4902 32.0912 10.7637 32.4558 11.4019C32.9117 10.8549 33.641 10.4902 34.3704 10.4902C35.5555 10.4902 36.2849 11.2196 36.2849 12.6783V16.5073H34.8262V13.2253C34.8262 12.4048 34.4615 12.0401 33.8234 12.0401C33.1852 12.0401 32.8205 12.4048 32.8205 13.2253V16.5073H31.0883V13.2253C31.0883 12.4048 30.7236 12.0401 30.0855 12.0401C29.4473 12.0401 29.1738 12.4048 29.1738 13.2253V16.5073H27.4416V10.5814H27.5328Z" fill="white" />
        <path d="M43.6695 10.5814H45.4017V11.4019C45.7664 10.8549 46.4046 10.4902 47.1339 10.4902C48.2279 10.4902 49.0484 11.3107 49.1396 12.3136C49.1396 12.4048 49.1396 12.4959 49.1396 12.6783V16.5073H47.4074V13.2253C47.4074 12.4048 47.0427 12.0401 46.4046 12.0401C45.7664 12.0401 45.4017 12.4048 45.4017 13.2253V16.5073H43.6695V10.5814Z" fill="white" />
        <path d="M49.6866 13.6809C49.5954 12.0399 50.8718 10.7635 52.4217 10.6724H52.5128C54.4273 10.6724 55.339 12.1311 55.339 13.8632C55.339 13.9544 55.339 14.1368 55.339 14.3191H51.2365C51.3276 15.0484 51.9658 15.5043 52.6952 15.4131C53.2422 15.4131 53.698 15.2308 54.1538 14.8661L54.6097 16.1424C54.0627 16.5983 53.4245 16.7806 52.6952 16.7806C51.0541 16.8718 49.6866 15.5954 49.6866 13.9544C49.6866 13.8632 49.6866 13.7721 49.6866 13.6809ZM53.7892 13.0427C53.7892 12.4046 53.2422 11.8575 52.604 11.7664C51.9658 11.7664 51.4188 12.3134 51.3276 13.0427H53.7892Z" fill="white" />
        <path d="M57.8917 13.5896C57.8917 11.9486 59.1681 10.5811 60.8091 10.5811H60.9003C61.5384 10.5811 62.1766 10.7634 62.7236 11.1281C62.6325 11.4927 62.1766 12.4956 62.1766 12.4956C61.8119 12.1309 61.3561 11.9486 60.8091 11.9486C59.8974 12.0397 59.2592 12.8603 59.4416 13.7719C59.5327 14.5013 60.1709 15.1395 60.9003 15.1395C61.4473 15.1395 61.9031 14.866 62.2678 14.5013L62.8148 15.8688C62.2678 16.3246 61.6296 16.507 60.9003 16.507C59.2592 16.507 57.8917 15.2306 57.8917 13.5896C57.8917 13.6808 57.8917 13.5896 57.8917 13.5896Z" fill="white" />
        <path d="M70.0171 10.5814H71.7493V11.4019C72.114 10.8549 72.7521 10.4902 73.3903 10.4902C74.0285 10.4902 74.6667 10.7637 75.0314 11.4019C75.4872 10.8549 76.2165 10.4902 76.9459 10.4902C78.1311 10.4902 78.8604 11.2196 78.8604 12.6783V16.5073H77.4017V13.2253C77.4017 12.4048 77.037 12.0401 76.3989 12.0401C75.7607 12.0401 75.396 12.4048 75.396 13.2253V16.5073H73.6638V13.2253C73.6638 12.4048 73.2992 12.0401 72.661 12.0401C72.0228 12.0401 71.6581 12.4048 71.6581 13.2253V16.5073H69.9259L70.0171 10.5814Z" fill="white" />
        <path d="M56.6154 16.5983C57.0685 16.5983 57.4359 16.1901 57.4359 15.6866C57.4359 15.1831 57.0685 14.7749 56.6154 14.7749C56.1622 14.7749 55.7949 15.1831 55.7949 15.6866C55.7949 16.1901 56.1622 16.5983 56.6154 16.5983Z" fill="white" />
        <path d="M15.3162 16.5984C13.584 16.5984 12.2165 15.2308 12.2165 13.4986C12.2165 11.7664 13.584 10.3989 15.3162 10.3989C17.0484 10.3989 18.416 11.7664 18.416 13.4986C18.3248 15.2308 16.9573 16.5984 15.3162 16.5984ZM15.3162 12.04C14.4957 12.04 13.8575 12.6781 13.8575 13.4986C13.8575 14.3192 14.4957 14.9573 15.3162 14.9573C16.1367 14.9573 16.7749 14.3192 16.7749 13.4986C16.6838 12.7693 16.0456 12.1311 15.3162 12.04Z" fill="white" />
        <path d="M40.114 16.5984C38.3818 16.5984 37.0143 15.2308 37.0143 13.4986C37.0143 11.7664 38.3818 10.3989 40.114 10.3989C41.8462 10.3989 43.2137 11.7664 43.2137 13.4986C43.2137 15.2308 41.8462 16.5984 40.114 16.5984ZM40.114 12.04C39.2935 12.04 38.6553 12.6781 38.6553 13.4986C38.6553 14.3192 39.2935 14.9573 40.114 14.9573C40.9345 14.9573 41.5727 14.3192 41.5727 13.4986C41.5727 12.7693 40.9345 12.1311 40.114 12.04Z" fill="white" />
        <path d="M66.188 16.5984C64.4558 16.5984 63.0883 15.2308 63.0883 13.4986C63.0883 11.7664 64.4558 10.3989 66.188 10.3989C67.9202 10.3989 69.2877 11.7664 69.2877 13.4986C69.2877 15.2308 67.9202 16.5984 66.188 16.5984ZM66.188 12.04C65.3675 12.04 64.7293 12.6781 64.7293 13.4986C64.7293 14.3192 65.3675 14.9573 66.188 14.9573C67.0085 14.9573 67.6467 14.3192 67.6467 13.4986C67.6467 12.7693 67.0085 12.1311 66.188 12.04Z" fill="white" />
    </symbol>

    <symbol id="mastercard" viewBox="0 0 42 32">
        <path d="M41.5271 12.7635C41.5271 19.7835 35.7835 25.5271 28.7635 25.5271C21.7436 25.5271 16 19.7835 16 12.7635C16 5.74359 21.7436 0 28.7635 0C35.7835 0 41.5271 5.74359 41.5271 12.7635Z" fill="#F79F1A" />
        <path d="M25.755 12.7635C25.755 19.7835 20.0114 25.5271 12.9915 25.5271C5.97153 25.5271 0.227936 19.7835 0.227936 12.7635C0.227936 5.74359 5.97153 0 12.9915 0C20.0114 0 25.755 5.74359 25.755 12.7635Z" fill="#EA001B" />
        <path d="M20.9231 2.73505C15.3618 7.11112 14.4502 15.1339 18.8262 20.6952C19.4644 21.5157 20.1938 22.245 20.9231 22.792C26.4843 18.416 27.396 10.3932 23.02 4.83191C22.3818 4.10257 21.6524 3.37322 20.9231 2.73505Z" fill="#FF5F01" />
        <path d="M3.14532 32H2.41597V28.3533H3.14532V28.8091C3.41882 28.5356 3.78349 28.3533 4.14817 28.2621C4.60401 28.2621 5.05985 28.5356 5.33335 28.9003C5.60685 28.5356 5.97153 28.2621 6.51854 28.2621C7.15672 28.2621 7.70373 28.7179 7.88606 29.3561V31.8177H7.15671V29.7208C7.15671 29.7208 7.15672 29.0826 6.33621 29.0826C5.51569 29.0826 5.42452 29.7208 5.42452 29.7208V31.8177H4.69518V29.7208C4.78634 29.7208 4.69518 29.0826 4.057 29.0826C3.23649 29.0826 3.23649 29.812 3.23649 29.812V32H3.14532Z" fill="white" />
        <path d="M25.0257 28.3533C24.661 28.4444 24.2963 28.6268 24.0228 28.8091V28.2621H23.2935V31.7265H24.0228V29.6296C24.0228 29.6296 24.0228 28.9915 24.8433 28.9915C24.9345 28.9915 25.1168 28.9915 25.208 29.0826L25.4815 28.4444C25.3903 28.3533 25.208 28.3533 25.0257 28.3533Z" fill="white" />
        <path d="M35.3277 28.3533C34.963 28.4444 34.5983 28.6268 34.3248 28.8091V28.2621H33.5955V31.7265H34.3248V29.6296C34.3248 29.6296 34.3248 28.9915 35.1453 28.9915C35.2365 28.9915 35.4188 28.9915 35.51 29.0826L35.7835 28.4444C35.6923 28.3533 35.51 28.3533 35.3277 28.3533Z" fill="white" />
        <path d="M10.0741 28.3533C9.16241 28.3533 8.34191 29.1738 8.43308 30.1766C8.43308 31.1795 9.16242 32 10.1653 32C10.6211 32 10.9858 31.8177 11.3505 31.5442V31.8177H12.0798V28.3533H11.0769V28.9003C11.1681 28.9003 10.7123 28.3533 10.0741 28.3533ZM10.1653 28.9914C10.8034 28.9914 11.3505 29.4473 11.3505 29.9943C11.3505 30.6325 10.8946 31.1795 10.3476 31.1795C9.70942 31.1795 9.16241 30.7236 9.16241 30.1766V30.0855C9.16241 29.5385 9.61826 29.0826 10.1653 28.9914Z" fill="white" />
        <path d="M30.7692 28.3533C29.8576 28.3533 29.0371 29.1738 29.1282 30.1766C29.1282 31.1795 29.8576 32 30.8604 32C31.3162 32 31.7721 31.8177 32.1368 31.5442V31.8177H32.5926V28.3533H31.8633V28.9003C31.5898 28.5356 31.2251 28.3533 30.7692 28.3533ZM30.9516 28.9914C31.5898 28.9914 32.1368 29.4473 32.1368 29.9943C32.1368 30.6325 31.6809 31.1795 31.1339 31.1795C30.4957 31.1795 29.9487 30.7236 29.9487 30.1766V30.0855C29.8576 29.5385 30.3134 29.0826 30.9516 28.9914C30.9516 29.0826 30.9516 29.0826 30.9516 28.9914Z" fill="white" />
        <path d="M37.6069 28.3533C36.6952 28.3533 35.8747 29.1738 35.9658 30.1766C35.9658 31.1795 36.6952 32 37.698 32C38.0627 32 38.5185 31.8176 38.792 31.5441V31.8176H39.5214V27.0769H38.5185V28.8091C38.792 28.9003 38.3362 28.3533 37.6069 28.3533ZM37.7892 28.9914C38.4274 28.9914 38.9744 29.4473 38.9744 29.9943C38.9744 30.6325 38.5185 31.1795 37.9715 31.1795C37.3334 31.1795 36.7863 30.7236 36.7863 30.1766V30.0855C36.6952 29.5384 37.151 29.0826 37.7892 28.9914Z" fill="white" />
        <path d="M14.0855 31.9088C13.5385 31.9088 13.0826 31.7265 12.6268 31.453L12.9003 30.9971C13.265 31.1795 13.6296 31.2707 13.9943 31.2707C14.2678 31.2707 14.8148 31.1795 14.8148 30.906C14.8148 30.6325 13.9943 30.4501 13.9943 30.4501C13.9943 30.4501 12.718 30.4501 12.718 29.3561C12.718 28.7179 13.3561 28.2621 14.1767 28.2621C14.6325 28.3533 15.0883 28.4444 15.5442 28.7179L15.1795 29.265C14.8148 29.1738 14.5413 28.9915 14.1767 28.9915C13.9031 28.9915 13.5385 29.1738 13.5385 29.3561C13.5385 30.0855 15.6353 29.265 15.6353 30.7236C15.6353 31.7265 14.8148 31.9088 14.0855 31.9088Z" fill="white" />
        <path d="M16.9117 27.3504V28.3533H16.1823V29.0826H16.9117V30.8148C16.8205 31.3618 17.2764 31.9088 17.9145 32H18.0057C18.2792 31.9088 18.6439 31.9088 18.9174 31.7265L18.6439 30.9972C18.4615 31.0883 18.2792 31.1795 18.0969 31.1795C17.5499 31.1795 17.5499 30.8148 17.5499 30.8148V29.0826H18.8262V28.3533H17.5499V27.3504H16.9117Z" fill="white" />
        <path d="M21.1054 28.2621C20.1026 28.4444 19.4644 29.4473 19.6467 30.359C19.8291 31.0883 20.3761 31.7265 21.1966 31.8177C21.6525 31.7265 22.1083 31.5442 22.473 31.3618L22.1083 30.8148C21.8348 30.9972 21.4701 31.1795 21.1054 31.1795C20.5584 31.1795 20.1026 30.8148 20.1026 30.2678H22.5641C22.6553 30.2678 22.8376 28.2621 21.1054 28.2621ZM21.0143 28.9915H21.1054C21.5613 28.9915 21.9259 29.265 21.9259 29.7208C21.9259 29.7208 21.9259 29.7208 21.9259 29.812H20.1938C20.1938 29.3561 20.4673 28.9915 21.0143 28.9915C20.9231 28.9915 20.9231 28.9915 21.0143 28.9915Z" fill="white" />
        <path d="M28.3989 30.906L28.7636 31.5442C28.3989 31.7265 28.0342 31.9088 27.6695 31.9088C26.6667 31.9088 25.8462 31.1795 25.755 30.1766V30.0855C25.755 29.1738 26.4843 28.3533 27.396 28.3533C27.4872 28.3533 27.4872 28.3533 27.5784 28.3533C28.0342 28.3533 28.3989 28.5356 28.8547 28.7179L28.4901 29.4473C28.3077 29.1738 27.9431 29.0826 27.5784 29.0826C26.9402 29.1738 26.5755 29.812 26.7579 30.4501C26.849 30.906 27.2137 31.1795 27.5784 31.2706C27.8519 31.2706 28.1254 31.1795 28.3989 30.906Z" fill="white" />
        <path d="M40.9801 31.3618C40.8889 31.3618 40.7977 31.3618 40.7066 31.453C40.6154 31.5442 40.6154 31.8177 40.7066 31.9088C40.8889 32 41.0712 32 41.1624 31.9088C41.2536 31.8177 41.2536 31.5442 41.1624 31.453C41.1624 31.3618 41.0712 31.3618 40.9801 31.3618ZM40.9801 32C40.7977 32 40.7066 31.9088 40.7066 31.7265C40.7066 31.5442 40.7977 31.453 40.9801 31.453C41.0712 31.453 41.0712 31.453 41.1624 31.5442C41.2536 31.6353 41.2536 31.8177 41.1624 31.9088C41.0712 31.9088 41.0712 32 40.9801 32ZM40.9801 31.5442V31.8177V32.0912H40.8889L40.9801 31.8177H41.0712H40.9801H41.0712C41.0712 31.8177 41.0712 31.8177 41.0712 31.7265V31.6353C41.0712 31.5442 40.9801 31.5442 40.9801 31.5442ZM40.9801 31.5442C40.9801 31.6353 40.9801 31.6353 40.9801 31.5442C40.9801 31.6353 40.9801 31.6353 40.9801 31.5442Z" fill="black" />
    </symbol>
    <symbol id="paw">
        <path d="M30.9736 16.0755L30.9736 16.0755L30.9727 16.0793C30.5372 17.9041 29.6773 19.4352 28.6884 20.4256C27.6843 21.4313 26.6825 21.765 25.8865 21.5873C25.092 21.4099 24.3508 20.6988 23.9061 19.3929C23.4667 18.1026 23.3827 16.378 23.8176 14.5541C24.2683 12.6989 25.1293 11.1689 26.1123 10.1869C27.1082 9.19211 28.1031 8.86522 28.9043 9.04412C29.7064 9.22322 30.4515 9.92966 30.8967 11.2221C31.3378 12.5023 31.4229 14.2248 30.9736 16.0755Z" stroke="#8D58E3" stroke-width="2" />
        <path d="M18.9099 18.7439C18.8744 20.5278 18.3851 22.1152 17.6671 23.2274C16.9393 24.3548 16.0766 24.8646 15.2968 24.8667C14.5268 24.8688 13.7093 24.3791 13.043 23.2779C12.3822 22.1858 11.961 20.6123 11.9966 18.8252C12.0322 17.0413 12.5214 15.4539 13.2395 14.3417C13.9673 13.2143 14.83 12.7045 15.6098 12.7024C16.3798 12.7003 17.1973 13.19 17.8636 14.2912C18.5244 15.3833 18.9456 16.9568 18.9099 18.7439Z" stroke="#8D58E3" stroke-width="2" />
        <path d="M9.92796 38.4389L9.92716 38.438C9.06732 37.4421 9.05694 36.1124 10.0141 34.4259C10.9752 32.7325 12.8088 30.9242 15.0963 29.3738C17.3732 27.8307 20.0172 26.5993 22.5207 26.0064C25.048 25.4078 27.2828 25.4924 28.8732 26.3704C30.449 27.2403 31.7053 29.0811 32.5428 31.5383C33.372 33.9714 33.7389 36.8653 33.6463 39.6143C33.5533 42.3764 33.0001 44.8906 32.0768 46.6036C31.1587 48.3068 30.0235 49.0072 28.7068 48.8042L28.7029 48.8036C27.2771 48.5895 26.4296 48.2039 25.8696 47.7788C25.3099 47.3538 24.9553 46.8288 24.6027 46.17C24.51 45.9968 24.4178 45.8127 24.3216 45.6209C23.6929 44.3668 22.8967 42.7786 20.723 41.7081L20.7226 41.7079L20.722 41.7076L20.7215 41.7073L20.7209 41.707L20.7203 41.7067L20.7197 41.7064L20.7192 41.706L20.7186 41.7057L20.718 41.7054L20.7174 41.7051L20.7169 41.7048L20.7163 41.7045L20.7157 41.7042L20.7152 41.7038L20.7146 41.7035L20.7141 41.7032L20.7135 41.7029L20.7129 41.7026L20.7124 41.7023L20.7118 41.702L20.7112 41.7017L20.7107 41.7014L20.7101 41.7011L20.7096 41.7007L20.709 41.7004L20.7085 41.7001L20.7079 41.6998L20.7074 41.6995L20.7068 41.6992L20.7063 41.6989L20.7057 41.6986L20.7052 41.6983L20.7046 41.698L20.7041 41.6977L20.7035 41.6974L20.703 41.6971L20.7024 41.6968L20.7019 41.6965L20.7013 41.6962L20.7008 41.6959L20.7003 41.6956L20.6997 41.6953L20.6992 41.695L20.6986 41.6947L20.6981 41.6944L20.6976 41.6941L20.697 41.6938L20.6965 41.6935L20.696 41.6932L20.6954 41.6929L20.6949 41.6926L20.6944 41.6923L20.6938 41.6921L20.6933 41.6918L20.6928 41.6915L20.6922 41.6912L20.6917 41.6909L20.6912 41.6906L20.6907 41.6903L20.6901 41.69L20.6896 41.6897L20.6891 41.6894L20.6886 41.6891L20.688 41.6889L20.6875 41.6886L20.687 41.6883L20.6865 41.688L20.686 41.6877L20.6854 41.6874L20.6849 41.6871L20.6844 41.6868L20.6839 41.6866L20.6834 41.6863L20.6828 41.686L20.6823 41.6857L20.6818 41.6854L20.6813 41.6851L20.6808 41.6849L20.6803 41.6846L20.6798 41.6843L20.6793 41.684L20.6787 41.6837L20.6782 41.6834L20.6777 41.6832L20.6772 41.6829L20.6767 41.6826L20.6762 41.6823L20.6757 41.682L20.6752 41.6818L20.6747 41.6815L20.6742 41.6812L20.6737 41.6809L20.6732 41.6807L20.6727 41.6804L20.6722 41.6801L20.6717 41.6798L20.6712 41.6795L20.6707 41.6793L20.6702 41.679L20.6697 41.6787L20.6692 41.6784L20.6687 41.6782L20.6682 41.6779L20.6677 41.6776L20.6672 41.6773L20.6667 41.6771L20.6662 41.6768L20.6657 41.6765L20.6652 41.6763L20.6647 41.676L20.6642 41.6757L20.6637 41.6754L20.6632 41.6752L20.6627 41.6749L20.6622 41.6746L20.6618 41.6744L20.6613 41.6741L20.6608 41.6738L20.6603 41.6735L20.6598 41.6733L20.6593 41.673L20.6588 41.6727L20.6583 41.6725L20.6579 41.6722L20.6574 41.6719L20.6569 41.6717L20.6564 41.6714L20.6559 41.6711L20.6554 41.6709L20.6549 41.6706L20.6545 41.6703L20.654 41.6701L20.6535 41.6698L20.653 41.6695L20.6525 41.6693L20.652 41.669L20.6516 41.6687L20.6511 41.6685L20.6506 41.6682L20.6501 41.6679L20.6496 41.6677L20.6492 41.6674L20.6487 41.6671L20.6482 41.6669L20.6477 41.6666L20.6473 41.6663L20.6468 41.6661L20.6463 41.6658L20.6458 41.6656L20.6453 41.6653L20.6449 41.665L20.6444 41.6648L20.6439 41.6645L20.6434 41.6642L20.643 41.664L20.6425 41.6637L20.642 41.6635L20.6415 41.6632L20.6411 41.6629L20.6406 41.6627L20.6401 41.6624L20.6397 41.6621L20.6392 41.6619L20.6387 41.6616L20.6382 41.6614L20.6378 41.6611L20.6373 41.6608L20.6368 41.6606L20.6364 41.6603L20.6359 41.6601L20.6354 41.6598L20.6349 41.6595L20.6345 41.6593L20.634 41.659L20.6335 41.6588L20.6331 41.6585L20.6326 41.6583L20.6321 41.658L20.6317 41.6577L20.6312 41.6575L20.6307 41.6572L20.6303 41.657L20.6298 41.6567L20.6293 41.6564L20.6289 41.6562L20.6284 41.6559L20.6279 41.6557L20.6275 41.6554L20.627 41.6552L20.6265 41.6549L20.6261 41.6546L20.6256 41.6544L20.6251 41.6541L20.6247 41.6539L20.6242 41.6536L20.6237 41.6534L20.6233 41.6531L20.6228 41.6528L20.6223 41.6526L20.6219 41.6523L20.6214 41.6521L20.6209 41.6518L20.6205 41.6516L20.62 41.6513L20.6195 41.651L20.6191 41.6508L20.6186 41.6505L20.6181 41.6503L20.6177 41.65L20.6172 41.6498L20.6167 41.6495L20.6163 41.6492L20.6158 41.649L20.6154 41.6487L20.6149 41.6485L20.6144 41.6482L20.614 41.648L20.6135 41.6477L20.613 41.6475L20.6126 41.6472L20.6121 41.6469L20.6116 41.6467L20.6112 41.6464L20.6107 41.6462L20.6102 41.6459L20.6098 41.6457L20.6093 41.6454L20.6089 41.6451L20.6084 41.6449L20.6079 41.6446L20.6075 41.6444L20.607 41.6441L20.6065 41.6439L20.6061 41.6436L20.6056 41.6433L20.6051 41.6431L20.6047 41.6428L20.6042 41.6426L20.6037 41.6423L20.6033 41.6421L20.6028 41.6418L20.6023 41.6416L20.6019 41.6413L20.6014 41.641L20.601 41.6408L20.6005 41.6405L20.6 41.6403L20.5996 41.64L20.5991 41.6398L20.5986 41.6395L20.5982 41.6392L20.5977 41.639L20.5972 41.6387L20.5968 41.6385L20.5963 41.6382L20.5958 41.638L20.5954 41.6377L20.5949 41.6374L20.5944 41.6372L20.594 41.6369L20.5935 41.6367L20.593 41.6364L20.5925 41.6361L20.5921 41.6359L20.5916 41.6356L20.5911 41.6354L20.5907 41.6351L20.5902 41.6348L20.5897 41.6346L20.5893 41.6343L20.5888 41.6341L20.5883 41.6338L20.5879 41.6336L20.5874 41.6333L20.5869 41.633L20.5864 41.6328L20.586 41.6325L20.5855 41.6323L20.585 41.632L20.5846 41.6317L20.5841 41.6315L20.5836 41.6312L20.5831 41.6309L20.5827 41.6307L20.5822 41.6304L20.5817 41.6302L20.5812 41.6299L20.5808 41.6296L20.5803 41.6294L20.5798 41.6291L20.5793 41.6289L20.5789 41.6286L20.5784 41.6283L20.5779 41.6281L20.5774 41.6278L20.577 41.6275L20.5765 41.6273L20.576 41.627L20.5755 41.6267L20.575 41.6265L20.5746 41.6262L20.5741 41.6259L20.5736 41.6257L20.5731 41.6254L20.5726 41.6252L20.5722 41.6249L20.5717 41.6246L20.5712 41.6244L20.5707 41.6241L20.5702 41.6238L20.5698 41.6236L20.5693 41.6233L20.5688 41.623L20.5683 41.6228L20.5678 41.6225L20.5673 41.6222L20.5668 41.622L20.5664 41.6217L20.5659 41.6214L20.5654 41.6211L20.5649 41.6209L20.5644 41.6206L20.5639 41.6203L20.5634 41.6201L20.5629 41.6198L20.5625 41.6195L20.562 41.6193L20.5615 41.619L20.561 41.6187L20.5605 41.6184L20.56 41.6182L20.5595 41.6179L20.559 41.6176L20.5585 41.6174L20.558 41.6171L20.5575 41.6168L20.557 41.6165L20.5565 41.6163L20.556 41.616L20.5555 41.6157L20.555 41.6154L20.5545 41.6152L20.554 41.6149L20.5535 41.6146L20.553 41.6143L20.5525 41.6141L20.552 41.6138L20.5515 41.6135L20.551 41.6132L20.5505 41.6129L20.55 41.6127L20.5495 41.6124L20.549 41.6121L20.5485 41.6118L20.548 41.6116L20.5475 41.6113L20.547 41.611L20.5465 41.6107L20.546 41.6104L20.5455 41.6101L20.545 41.6099L20.5444 41.6096L20.5439 41.6093L20.5434 41.609L20.5429 41.6087L20.5424 41.6085L20.5419 41.6082L20.5414 41.6079L20.5408 41.6076L20.5403 41.6073L20.5398 41.607L20.5393 41.6067L20.5388 41.6065L20.5383 41.6062L20.5377 41.6059L20.5372 41.6056L20.5367 41.6053L20.5362 41.605L20.5357 41.6047L20.5351 41.6044L20.5346 41.6042L20.5341 41.6039L20.5336 41.6036L20.533 41.6033L20.5325 41.603L20.532 41.6027L20.5314 41.6024L20.5309 41.6021L20.5304 41.6018L20.5299 41.6015L20.5293 41.6012L20.5288 41.6009L20.5283 41.6006L20.5277 41.6004L20.5272 41.6001L20.5266 41.5998L20.5261 41.5995L20.5256 41.5992L20.525 41.5989L20.5245 41.5986L20.524 41.5983L20.5234 41.598L20.5229 41.5977L20.5223 41.5974L20.5218 41.5971L20.5212 41.5968L20.5207 41.5965L20.5201 41.5962L20.5196 41.5959L20.5191 41.5956L20.5185 41.5953L20.518 41.595L20.5174 41.5947L20.5169 41.5944L20.5163 41.594L20.5157 41.5937L20.5152 41.5934L20.5146 41.5931L20.5141 41.5928L20.5135 41.5925L20.513 41.5922L20.5124 41.5919L20.5118 41.5916L20.5113 41.5913L20.5107 41.591L20.5102 41.5907L20.5096 41.5903L20.509 41.59L20.5085 41.5897L20.5079 41.5894L20.5073 41.5891L20.5068 41.5888L20.5062 41.5885L20.5056 41.5882L20.505 41.5878L20.5045 41.5875L20.5039 41.5872L20.5033 41.5869L20.5028 41.5866L20.5022 41.5863L20.5016 41.5859L20.501 41.5856L20.5004 41.5853L20.4999 41.585L20.4993 41.5847L20.4987 41.5843L20.4981 41.584L20.4975 41.5837L20.4969 41.5834L20.4963 41.583L20.4958 41.5827L20.4952 41.5824L20.4946 41.5821L20.494 41.5817L20.4934 41.5814L20.4928 41.5811L20.4922 41.5807L20.4916 41.5804L20.491 41.5801L20.4904 41.5798L20.4898 41.5794L20.4892 41.5791L20.4886 41.5788L20.488 41.5784L20.4874 41.5781L20.4868 41.5778L20.4862 41.5774L20.4856 41.5771L20.485 41.5768L20.4844 41.5764L20.4838 41.5761L20.4831 41.5757L20.4825 41.5754L20.4819 41.5751L20.4813 41.5747L20.4807 41.5744L20.4801 41.574L20.4794 41.5737L20.4788 41.5734L20.4782 41.573L20.4776 41.5727L20.477 41.5723L20.4764 41.572L20.4758 41.5717L20.4751 41.5713L20.4745 41.571L20.4739 41.5707L20.4733 41.5703L20.4727 41.57L20.4721 41.5697L20.4715 41.5693L20.4709 41.569L20.4703 41.5687L20.4697 41.5683L20.4691 41.568L20.4685 41.5677L20.4679 41.5673L20.4673 41.567L20.4667 41.5667L20.4661 41.5664L20.4655 41.566L20.465 41.5657L20.4644 41.5654L20.4638 41.5651L20.4632 41.5647L20.4626 41.5644L20.462 41.5641L20.4614 41.5638L20.4608 41.5634L20.4603 41.5631L20.4597 41.5628L20.4591 41.5625L20.4585 41.5622L20.4579 41.5618L20.4574 41.5615L20.4568 41.5612L20.4562 41.5609L20.4556 41.5606L20.4551 41.5602L20.4545 41.5599L20.4539 41.5596L20.4534 41.5593L20.4528 41.559L20.4522 41.5587L20.4517 41.5584L20.4511 41.5581L20.4505 41.5577L20.45 41.5574L20.4494 41.5571L20.4488 41.5568L20.4483 41.5565L20.4477 41.5562L20.4472 41.5559L20.4466 41.5556L20.446 41.5553L20.4455 41.555L20.4449 41.5546L20.4444 41.5543L20.4438 41.554L20.4433 41.5537L20.4427 41.5534L20.4422 41.5531L20.4416 41.5528L20.4411 41.5525L20.4405 41.5522L20.44 41.5519L20.4394 41.5516L20.4389 41.5513L20.4383 41.551L20.4378 41.5507L20.4372 41.5504L20.4367 41.5501L20.4362 41.5498L20.4356 41.5495L20.4351 41.5492L20.4345 41.5489L20.434 41.5486L20.4335 41.5483L20.4329 41.548L20.4324 41.5477L20.4319 41.5474L20.4313 41.5471L20.4308 41.5468L20.4303 41.5466L20.4297 41.5463L20.4292 41.546L20.4287 41.5457L20.4281 41.5454L20.4276 41.5451L20.4271 41.5448L20.4266 41.5445L20.426 41.5442L20.4255 41.5439L20.425 41.5436L20.4245 41.5434L20.4239 41.5431L20.4234 41.5428L20.4229 41.5425L20.4224 41.5422L20.4219 41.5419L20.4213 41.5416L20.4208 41.5413L20.4203 41.5411L20.4198 41.5408L20.4193 41.5405L20.4188 41.5402L20.4182 41.5399L20.4177 41.5396L20.4172 41.5393L20.4167 41.5391L20.4162 41.5388L20.4157 41.5385L20.4152 41.5382L20.4147 41.5379L20.4141 41.5377L20.4136 41.5374L20.4131 41.5371L20.4126 41.5368L20.4121 41.5365L20.4116 41.5363L20.4111 41.536L20.4106 41.5357L20.4101 41.5354L20.4096 41.5351L20.4091 41.5349L20.4086 41.5346L20.4081 41.5343L20.4076 41.534L20.4071 41.5338L20.4066 41.5335L20.4061 41.5332L20.4056 41.5329L20.4051 41.5327L20.4046 41.5324L20.4041 41.5321L20.4036 41.5318L20.4031 41.5316L20.4026 41.5313L20.4021 41.531L20.4016 41.5307L20.4011 41.5305L20.4006 41.5302L20.4001 41.5299L20.3996 41.5296L20.3991 41.5294L20.3987 41.5291L20.3982 41.5288L20.3977 41.5286L20.3972 41.5283L20.3967 41.528L20.3962 41.5277L20.3957 41.5275L20.3952 41.5272L20.3947 41.5269L20.3942 41.5267L20.3938 41.5264L20.3933 41.5261L20.3928 41.5259L20.3923 41.5256L20.3918 41.5253L20.3913 41.5251L20.3909 41.5248L20.3904 41.5245L20.3899 41.5243L20.3894 41.524L20.3889 41.5237L20.3884 41.5235L20.388 41.5232L20.3875 41.5229L20.387 41.5227L20.3865 41.5224L20.386 41.5221L20.3856 41.5219L20.3851 41.5216L20.3846 41.5213L20.3841 41.5211L20.3836 41.5208L20.3832 41.5206L20.3827 41.5203L20.3822 41.52L20.3817 41.5198L20.3813 41.5195L20.3808 41.5192L20.3803 41.519L20.3798 41.5187L20.3794 41.5184L20.3789 41.5182L20.3784 41.5179L20.3779 41.5177L20.3775 41.5174L20.377 41.5171L20.3765 41.5169L20.376 41.5166L20.3756 41.5164L20.3751 41.5161L20.3746 41.5158L20.3741 41.5156L20.3737 41.5153L20.3732 41.5151L20.3727 41.5148L20.3723 41.5145L20.3718 41.5143L20.3713 41.514L20.3709 41.5138L20.3704 41.5135L20.3699 41.5132L20.3694 41.513L20.369 41.5127L20.3685 41.5125L20.368 41.5122L20.3676 41.5119L20.3671 41.5117L20.3666 41.5114L20.3662 41.5112L20.3657 41.5109L20.3652 41.5107L20.3648 41.5104L20.3643 41.5101L20.3638 41.5099L20.3634 41.5096L20.3629 41.5094L20.3624 41.5091L20.362 41.5088L20.3615 41.5086L20.361 41.5083L20.3606 41.5081L20.3601 41.5078L20.3596 41.5076L20.3592 41.5073L20.3587 41.507L20.3582 41.5068L20.3578 41.5065L20.3573 41.5063L20.3568 41.506L20.3564 41.5058L20.3559 41.5055L20.3554 41.5053L20.355 41.505L20.3545 41.5047L20.3541 41.5045L20.3536 41.5042L20.3531 41.504L20.3527 41.5037L20.3522 41.5035L20.3517 41.5032L20.3513 41.5029L20.3508 41.5027L20.3503 41.5024L20.3499 41.5022L20.3494 41.5019L20.3489 41.5017L20.3485 41.5014L20.348 41.5011L20.3476 41.5009L20.3471 41.5006L20.3466 41.5004L20.3462 41.5001L20.3457 41.4999L20.3452 41.4996L20.3448 41.4994L20.3443 41.4991L20.3438 41.4988L20.3434 41.4986L20.3429 41.4983L20.3424 41.4981L20.342 41.4978L20.3415 41.4976L20.341 41.4973L20.3406 41.497L20.3401 41.4968L20.3397 41.4965L20.3392 41.4963L20.3387 41.496L20.3383 41.4958L20.3378 41.4955L20.3373 41.4952L20.3369 41.495L20.3364 41.4947L20.3359 41.4945L20.3355 41.4942L20.335 41.494L20.3345 41.4937L20.3341 41.4934L20.3336 41.4932L20.3331 41.4929L20.3327 41.4927L20.3322 41.4924L20.3317 41.4922L20.3313 41.4919L20.3308 41.4916L20.3303 41.4914L20.3299 41.4911L20.3294 41.4909L20.3289 41.4906L20.3285 41.4904L20.328 41.4901L20.3275 41.4898L20.3271 41.4896L20.3266 41.4893L20.3261 41.4891L20.3256 41.4888L20.3252 41.4885L20.3247 41.4883L20.3242 41.488L20.3238 41.4878L20.3233 41.4875L20.3228 41.4872L20.3224 41.487L20.3219 41.4867L20.3214 41.4865L20.3209 41.4862L20.3205 41.4859L20.32 41.4857L20.3195 41.4854L20.319 41.4852L20.3186 41.4849L20.3181 41.4846L20.3176 41.4844L20.3172 41.4841L20.3167 41.4838L20.3162 41.4836L20.3157 41.4833L20.3152 41.4831L20.3148 41.4828L20.3143 41.4825L20.3138 41.4823L20.3133 41.482L20.3129 41.4817L20.3124 41.4815L20.3119 41.4812L20.3114 41.481L20.311 41.4807L20.3105 41.4804L20.31 41.4802L20.3095 41.4799L20.309 41.4796L20.3086 41.4794L20.3081 41.4791L20.3076 41.4788L20.3071 41.4786L20.3066 41.4783L20.3061 41.478L20.3057 41.4778L20.3052 41.4775L20.3047 41.4772L20.3042 41.477L20.3037 41.4767L20.3032 41.4764L20.3028 41.4762L20.3023 41.4759L20.3018 41.4756L20.3013 41.4754L20.3008 41.4751L20.3003 41.4748L20.2998 41.4745L20.2993 41.4743L20.2989 41.474L20.2984 41.4737L20.2979 41.4735L20.2974 41.4732L20.2969 41.4729L20.2964 41.4727L20.2959 41.4724L20.2954 41.4721L20.2949 41.4718L20.2944 41.4716L20.2939 41.4713L20.2934 41.471L20.2929 41.4707L20.2924 41.4705L20.2919 41.4702L20.2914 41.4699L20.2909 41.4696L20.2905 41.4694L20.29 41.4691L20.2895 41.4688L20.289 41.4685L20.2885 41.4683L20.2879 41.468L20.2874 41.4677L20.2869 41.4674L20.2864 41.4672L20.2859 41.4669L20.2854 41.4666L20.2849 41.4663L20.2844 41.466L20.2839 41.4658L20.2834 41.4655L20.2829 41.4652L20.2824 41.4649L20.2819 41.4646L20.2814 41.4644L20.2809 41.4641L20.2804 41.4638L20.2798 41.4635L20.2793 41.4632L20.2788 41.4629L20.2783 41.4627L20.2778 41.4624L20.2773 41.4621L20.2768 41.4618L20.2762 41.4615L20.2757 41.4612L20.2752 41.461L20.2747 41.4607L20.2742 41.4604L20.2737 41.4601L20.2731 41.4598L20.2726 41.4595L20.2721 41.4592L20.2716 41.4589L20.271 41.4587L20.2705 41.4584L20.27 41.4581L20.2695 41.4578L20.2689 41.4575L20.2684 41.4572L20.2679 41.4569L20.2674 41.4566L20.2668 41.4563L20.2663 41.456L20.2658 41.4557L20.2652 41.4554L20.2647 41.4552L20.2642 41.4549L20.2636 41.4546L20.2631 41.4543L20.2626 41.454L20.262 41.4537L20.2615 41.4534L20.2609 41.4531L20.2604 41.4528L20.2599 41.4525L20.2593 41.4522L20.2588 41.4519L20.2582 41.4516L20.2577 41.4513L20.2572 41.451L20.2566 41.4507L20.2561 41.4504L20.2555 41.4501L20.255 41.4498L20.2544 41.4495L20.2539 41.4492L20.2533 41.4489L20.2528 41.4486L20.2522 41.4483L20.2517 41.448L20.2511 41.4476L20.2505 41.4473L20.25 41.447L20.2494 41.4467L20.2489 41.4464L20.2483 41.4461L20.2478 41.4458L20.2472 41.4455L20.2466 41.4452L20.2461 41.4449L20.2455 41.4446L20.2449 41.4442L20.2444 41.4439L20.2438 41.4436L20.2432 41.4433L20.2427 41.443L20.2421 41.4427L20.2415 41.4424L20.241 41.442L20.2404 41.4417L20.2398 41.4414L20.2392 41.4411L20.2387 41.4408L20.2381 41.4405L20.2375 41.4401L20.2369 41.4398L20.2369 41.4398C18.1476 40.1567 16.3679 40.3241 14.9602 40.4564C14.7485 40.4763 14.5452 40.4954 14.3505 40.5087C13.6005 40.5598 12.9651 40.5387 12.3059 40.2909C11.6468 40.0431 10.8688 39.5313 9.92796 38.4389Z" stroke="#8D58E3" stroke-width="2" />
        <path d="M36.463 19.1102L36.463 19.1102L36.4657 19.1074C37.7924 17.7411 39.2953 16.8953 40.6137 16.5863C41.9446 16.2744 42.9394 16.5285 43.5184 17.1118C44.0967 17.6945 44.3502 18.7105 44.039 20.0833C43.7318 21.4389 42.8954 22.9834 41.5649 24.3536C40.2383 25.72 38.7354 26.5658 37.417 26.8747C36.0861 27.1866 35.0912 26.9325 34.5123 26.3492C33.9377 25.7703 33.6863 24.7447 34.0023 23.3592C34.3134 21.9946 35.1508 20.4511 36.463 19.1102Z" stroke="#8D58E3" stroke-width="2" />
        <path d="M44.9678 29.2306C46.2401 29.2135 47.0892 29.6488 47.5034 30.3058C47.8959 30.9549 47.9221 31.9616 47.3606 33.1838C46.807 34.3889 45.7366 35.6535 44.2507 36.631L44.2507 36.631L44.2448 36.6349C42.7386 37.6413 41.1862 38.1209 39.9188 38.1379C38.6432 38.1551 37.7929 37.7175 37.3799 37.0577C36.9661 36.3967 36.9379 35.395 37.5041 34.1783C38.0626 32.9781 39.1452 31.7182 40.6358 30.7376L40.6358 30.7376L40.6418 30.7336C42.148 29.7272 43.7003 29.2477 44.9678 29.2306Z" stroke="#8D58E3" stroke-width="2" />
        <mask id="path-6-inside-1_1_694" fill="white">
            <path d="M47.0901 15.0928C46.826 14.947 45.828 14.2582 44.3832 15.2524C44.7656 15.8081 45.8655 17.3111 45.8655 17.3111C45.8655 17.3111 46.0371 15.7519 47.0901 15.0928Z" />
        </mask>
        <path d="M47.0901 15.0928L48.1513 16.7881L51.0324 14.9846L48.0567 13.3419L47.0901 15.0928ZM44.3832 15.2524L43.2495 13.6048L41.6019 14.7386L42.7357 16.3862L44.3832 15.2524ZM45.8655 17.3111L44.2515 18.4922L47.2905 22.6453L47.8535 17.53L45.8655 17.3111ZM48.0567 13.3419C48.1001 13.3658 47.8335 13.2077 47.5853 13.0951C47.3027 12.9669 46.9236 12.8311 46.4622 12.7652C45.481 12.625 44.3677 12.8353 43.2495 13.6048L45.517 16.9C45.6979 16.7755 45.8092 16.7411 45.8499 16.7312C45.8721 16.7258 45.8847 16.725 45.8891 16.7248C45.8937 16.7246 45.8958 16.7249 45.8966 16.725C45.8984 16.7253 45.9086 16.7268 45.9326 16.7377C45.9448 16.7433 45.9604 16.7511 45.9842 16.7643C45.997 16.7715 46.0103 16.7791 46.0314 16.7913C46.0453 16.7993 46.0856 16.8227 46.1235 16.8437L48.0567 13.3419ZM42.7357 16.3862C42.9434 16.688 43.329 17.2234 43.6485 17.664C43.8113 17.8886 43.9618 18.0954 44.0717 18.246C44.1266 18.3214 44.1714 18.3827 44.2026 18.4254C44.2182 18.4467 44.2303 18.4633 44.2386 18.4746C44.2427 18.4803 44.2459 18.4847 44.2481 18.4876C44.2492 18.4891 44.25 18.4902 44.2506 18.491C44.2508 18.4914 44.2511 18.4917 44.2512 18.4919C44.2513 18.492 44.2513 18.492 44.2514 18.4921C44.2514 18.4921 44.2514 18.4922 44.2514 18.4922C44.2514 18.4922 44.2515 18.4922 45.8655 17.3111C47.4795 16.1301 47.4795 16.1301 47.4795 16.1301C47.4795 16.1301 47.4795 16.1301 47.4795 16.1301C47.4795 16.13 47.4794 16.13 47.4794 16.1299C47.4793 16.1297 47.4791 16.1295 47.4788 16.1291C47.4783 16.1285 47.4776 16.1274 47.4766 16.126C47.4745 16.1233 47.4715 16.1191 47.4675 16.1136C47.4595 16.1027 47.4476 16.0865 47.4324 16.0656C47.4019 16.0239 47.3578 15.9635 47.3036 15.8892C47.1953 15.7407 47.047 15.537 46.887 15.3163C46.561 14.8665 46.2055 14.3725 46.0308 14.1186L42.7357 16.3862ZM45.8655 17.3111C47.8535 17.53 47.8534 17.5306 47.8534 17.5311C47.8533 17.5313 47.8533 17.5319 47.8532 17.5323C47.8531 17.5331 47.8531 17.5338 47.853 17.5345C47.8528 17.536 47.8527 17.5373 47.8525 17.5386C47.8522 17.5411 47.852 17.5433 47.8517 17.5452C47.8513 17.549 47.851 17.5515 47.8508 17.5527C47.8505 17.5553 47.8507 17.553 47.8517 17.5466C47.8537 17.5336 47.8585 17.5048 47.8669 17.4645C47.8843 17.3807 47.9138 17.2645 47.9589 17.1425C48.0681 16.8472 48.1693 16.7768 48.1513 16.7881L46.029 13.3975C44.9579 14.0679 44.4469 15.1067 44.207 15.7558C44.0775 16.106 43.9983 16.4208 43.9507 16.65C43.9265 16.7661 43.9096 16.8643 43.8981 16.9391C43.8924 16.9766 43.8879 17.0085 43.8845 17.0342C43.8829 17.0471 43.8815 17.0584 43.8803 17.0681C43.8797 17.073 43.8792 17.0774 43.8787 17.0814C43.8785 17.0835 43.8783 17.0854 43.8781 17.0872C43.878 17.0881 43.8779 17.089 43.8778 17.0899C43.8777 17.0903 43.8777 17.0909 43.8776 17.0911C43.8776 17.0917 43.8775 17.0923 45.8655 17.3111Z" fill="#8D58E3" mask="url(#path-6-inside-1_1_694)" />
        <mask id="path-8-inside-2_1_694" fill="white">
            <path d="M30.2462 7.65497C30.2462 7.65497 29.241 6.47982 29.5072 5.24851C29.2322 5.37231 28.008 5.59241 27.7198 7.36289C28.3646 7.4432 30.2462 7.65497 30.2462 7.65497Z" />
        </mask>
        <path d="M30.2462 7.65497L30.0225 9.64242L35.0634 10.2097L31.766 6.35493L30.2462 7.65497ZM29.5072 5.24851L31.4621 5.67121L32.2994 1.79873L28.6865 3.42469L29.5072 5.24851ZM27.7198 7.36289L25.7458 7.04151L25.4121 9.09094L27.4726 9.34756L27.7198 7.36289ZM30.2462 7.65497C31.766 6.35493 31.7664 6.3554 31.7668 6.35588C31.767 6.35603 31.7674 6.3565 31.7676 6.3568C31.7682 6.35741 31.7687 6.35801 31.7692 6.35859C31.7701 6.35975 31.7711 6.36084 31.772 6.36188C31.7737 6.36395 31.7752 6.36577 31.7766 6.36736C31.7792 6.37052 31.781 6.37274 31.7821 6.37403C31.7842 6.37661 31.7833 6.37559 31.7799 6.37125C31.773 6.3624 31.7568 6.34114 31.7348 6.30952C31.689 6.2437 31.6287 6.14813 31.575 6.03783C31.4465 5.77398 31.4648 5.65865 31.4621 5.67121L27.5524 4.82581C27.2835 6.06967 27.6712 7.15758 27.9788 7.78912C28.1431 8.12652 28.3175 8.4017 28.4518 8.5947C28.5199 8.69249 28.5801 8.77267 28.6271 8.83289C28.6507 8.86308 28.6711 8.88852 28.6879 8.90891C28.6962 8.91911 28.7036 8.92808 28.7101 8.93576C28.7133 8.93961 28.7163 8.94314 28.719 8.94635C28.7204 8.94795 28.7217 8.94948 28.7229 8.95092C28.7235 8.95164 28.7241 8.95234 28.7247 8.95303C28.725 8.95337 28.7254 8.95386 28.7255 8.95403C28.726 8.95452 28.7264 8.95501 30.2462 7.65497ZM28.6865 3.42469C28.9855 3.29011 28.0126 3.62728 27.3931 4.10749C26.6055 4.71805 25.9689 5.67124 25.7458 7.04151L29.6938 7.68427C29.7302 7.46058 29.7843 7.35375 29.8062 7.31641C29.827 7.28103 29.8401 7.27174 29.8437 7.2689C29.8523 7.2623 29.872 7.24893 29.9206 7.22872C29.947 7.21775 29.9762 7.2069 30.0295 7.18807C30.0495 7.18098 30.0945 7.16525 30.1329 7.15119C30.1698 7.13768 30.2443 7.11 30.328 7.07233L28.6865 3.42469ZM27.4726 9.34756C27.807 9.38921 28.4493 9.46343 28.9977 9.52611C29.2741 9.55771 29.5302 9.58677 29.7172 9.60793C29.8107 9.61852 29.8869 9.62713 29.9399 9.6331C29.9663 9.63609 29.9869 9.63841 30.001 9.63999C30.008 9.64078 30.0134 9.64139 30.017 9.6418C30.0188 9.642 30.0202 9.64216 30.0211 9.64226C30.0216 9.64231 30.0219 9.64235 30.0222 9.64238C30.0223 9.64239 30.0224 9.6424 30.0224 9.64241C30.0225 9.64241 30.0225 9.64242 30.0225 9.64242C30.0225 9.64242 30.0225 9.64242 30.2462 7.65497C30.4699 5.66752 30.4699 5.66752 30.4699 5.66751C30.4699 5.66751 30.4698 5.66751 30.4698 5.66751C30.4698 5.6675 30.4697 5.66749 30.4696 5.66748C30.4694 5.66746 30.469 5.66742 30.4686 5.66737C30.4677 5.66727 30.4664 5.66712 30.4646 5.66692C30.4611 5.66652 30.4558 5.66593 30.4489 5.66515C30.435 5.66359 30.4146 5.66129 30.3883 5.65832C30.3358 5.6524 30.26 5.64384 30.1671 5.63332C29.9811 5.61226 29.7265 5.58337 29.4519 5.55199C28.8983 5.4887 28.2774 5.41689 27.967 5.37823L27.4726 9.34756Z" fill="#8D58E3" mask="url(#path-8-inside-2_1_694)" />
        <mask id="path-10-inside-3_1_694" fill="white">
            <path d="M16.702 11.3422C16.702 11.3422 15.6093 10.3255 15.6879 9.05952C15.4129 9.18332 14.2069 9.6202 14.1882 11.4017C14.8094 11.4 16.702 11.3422 16.702 11.3422Z" />
        </mask>
        <path d="M16.702 11.3422L16.7631 13.3413L21.6268 13.1927L18.0644 9.87798L16.702 11.3422ZM15.6879 9.05952L17.6841 9.18352L17.8896 5.87551L14.8672 7.2357L15.6879 9.05952ZM14.1882 11.4017L12.1883 11.3807L12.1671 13.4071L14.1936 13.4017L14.1882 11.4017ZM16.702 11.3422C18.0644 9.87798 18.0648 9.87841 18.0653 9.87884C18.0654 9.87898 18.0659 9.87941 18.0662 9.87969C18.0668 9.88024 18.0674 9.88079 18.0679 9.88132C18.0691 9.88237 18.0702 9.88338 18.0712 9.88433C18.0732 9.88623 18.075 9.88793 18.0765 9.88941C18.0797 9.89239 18.0819 9.89454 18.0833 9.89589C18.0861 9.89858 18.0856 9.89816 18.0823 9.8948C18.0755 9.88795 18.0584 9.87014 18.0344 9.84284C17.9845 9.78614 17.9162 9.70113 17.8511 9.59925C17.6998 9.36224 17.6818 9.2199 17.6841 9.18352L13.6918 8.93552C13.6154 10.1651 14.1045 11.1641 14.4798 11.7519C14.6781 12.0625 14.878 12.3108 15.0306 12.4843C15.1078 12.5721 15.1754 12.6436 15.2281 12.6973C15.2545 12.7242 15.2774 12.7468 15.2962 12.765C15.3056 12.7741 15.3139 12.7822 15.3212 12.789C15.3248 12.7925 15.3281 12.7957 15.3312 12.7986C15.3328 12.8 15.3342 12.8014 15.3356 12.8027C15.3363 12.8033 15.337 12.804 15.3377 12.8046C15.338 12.8049 15.3385 12.8054 15.3386 12.8055C15.3391 12.806 15.3396 12.8064 16.702 11.3422ZM14.8672 7.2357C14.8745 7.23242 14.612 7.34093 14.3537 7.48738C14.0782 7.64359 13.7391 7.8747 13.4089 8.21379C12.7061 8.9357 12.2029 9.98496 12.1883 11.3807L16.1881 11.4226C16.1904 11.2063 16.227 11.0974 16.2429 11.0586C16.2584 11.0208 16.2708 11.0084 16.2749 11.0042C16.283 10.9959 16.2981 10.9832 16.3266 10.967C16.3724 10.941 16.3639 10.9485 16.5087 10.8833L14.8672 7.2357ZM14.1936 13.4017C14.533 13.4008 15.1874 13.3851 15.7313 13.3706C16.0088 13.3632 16.2665 13.3559 16.4547 13.3504C16.5489 13.3477 16.6258 13.3454 16.6792 13.3438C16.706 13.343 16.7268 13.3424 16.7411 13.3419C16.7482 13.3417 16.7536 13.3415 16.7573 13.3414C16.7592 13.3414 16.7606 13.3413 16.7615 13.3413C16.762 13.3413 16.7624 13.3413 16.7626 13.3413C16.7628 13.3413 16.7629 13.3413 16.7629 13.3413C16.763 13.3413 16.763 13.3413 16.763 13.3413C16.763 13.3413 16.7631 13.3413 16.702 11.3422C16.6409 9.34312 16.6409 9.34312 16.6409 9.34312C16.6409 9.34312 16.6409 9.34312 16.6409 9.34312C16.6408 9.34312 16.6407 9.34312 16.6406 9.34313C16.6404 9.34313 16.6401 9.34314 16.6397 9.34316C16.6388 9.34318 16.6375 9.34322 16.6358 9.34328C16.6323 9.34338 16.627 9.34354 16.6201 9.34375C16.6063 9.34417 16.5859 9.34478 16.5597 9.34557C16.5072 9.34714 16.4313 9.34939 16.3384 9.35209C16.1523 9.35751 15.8981 9.36474 15.6248 9.37201C15.0671 9.38686 14.4646 9.40093 14.1829 9.40168L14.1936 13.4017Z" fill="#8D58E3" mask="url(#path-10-inside-3_1_694)" />
        <mask id="path-12-inside-4_1_694" fill="white">
            <path d="M51.147 28.8411C50.9121 28.6425 50.0015 27.7952 48.4566 28.5963C48.757 29.1757 49.6346 30.8317 49.6346 30.8317C49.6346 30.8317 49.9938 29.3071 51.147 28.8411Z" />
        </mask>
        <path d="M51.147 28.8411L51.8964 30.6954L54.9693 29.4535L52.4382 27.3137L51.147 28.8411ZM48.4566 28.5963L47.5359 26.8208L45.7604 27.7415L46.6811 29.517L48.4566 28.5963ZM49.6346 30.8317L47.8674 31.7682L50.3603 36.4723L51.5813 31.2904L49.6346 30.8317ZM52.4382 27.3137C52.3372 27.2284 51.766 26.7006 50.8734 26.4299C49.9075 26.137 48.7559 26.1882 47.5359 26.8208L49.3773 30.3718C49.5608 30.2767 49.6629 30.2619 49.6914 30.2591C49.7182 30.2564 49.7206 30.2601 49.7126 30.2577C49.7105 30.2571 49.718 30.2589 49.7369 30.2715C49.7627 30.2887 49.7663 30.2928 49.8558 30.3684L52.4382 27.3137ZM46.6811 29.517C46.8355 29.8147 47.1338 30.3807 47.3898 30.8654C47.5186 31.1092 47.638 31.3349 47.7251 31.4995C47.7687 31.5818 47.8043 31.6489 47.8289 31.6955C47.8413 31.7188 47.8509 31.7369 47.8574 31.7493C47.8607 31.7554 47.8632 31.7601 47.8648 31.7633C47.8657 31.7649 47.8663 31.7661 47.8668 31.7669C47.867 31.7673 47.8671 31.7676 47.8672 31.7678C47.8673 31.768 47.8673 31.768 47.8674 31.7681C47.8674 31.7681 47.8674 31.7681 47.8674 31.7681C47.8674 31.7682 47.8674 31.7682 49.6346 30.8317C51.4018 29.8952 51.4018 29.8952 51.4018 29.8952C51.4018 29.8951 51.4018 29.8951 51.4018 29.8951C51.4017 29.8951 51.4017 29.895 51.4017 29.8949C51.4016 29.8947 51.4014 29.8944 51.4012 29.894C51.4008 29.8932 51.4002 29.8921 51.3993 29.8905C51.3977 29.8874 51.3952 29.8827 51.392 29.8766C51.3855 29.8644 51.376 29.8464 51.3637 29.8233C51.3392 29.777 51.3038 29.7102 51.2604 29.6282C51.1737 29.4643 51.0548 29.2397 50.9267 28.9971C50.6689 28.509 50.3781 27.9572 50.2321 27.6756L46.6811 29.517ZM49.6346 30.8317C51.5813 31.2904 51.5812 31.291 51.581 31.2916C51.581 31.2918 51.5808 31.2924 51.5807 31.2928C51.5805 31.2935 51.5804 31.2943 51.5802 31.295C51.5798 31.2965 51.5795 31.2979 51.5792 31.2992C51.5786 31.3019 51.578 31.3042 51.5775 31.3062C51.5765 31.3101 51.5758 31.3129 51.5754 31.3145C51.5746 31.3176 51.5749 31.3161 51.5765 31.3107C51.5796 31.2996 51.5873 31.2736 51.5999 31.237C51.6262 31.1606 51.6676 31.0566 51.7237 30.9511C51.8614 30.6925 51.9502 30.6737 51.8964 30.6954L50.3976 26.9868C49.1907 27.4745 48.5232 28.451 48.193 29.0712C48.0152 29.4051 47.8947 29.7114 47.8176 29.9353C47.7785 30.0489 47.7491 30.1457 47.7281 30.2198C47.7176 30.257 47.7091 30.2887 47.7024 30.3144C47.6991 30.3273 47.6963 30.3386 47.6939 30.3484C47.6926 30.3533 47.6916 30.3578 47.6906 30.3619C47.6901 30.3639 47.6896 30.3659 47.6892 30.3677C47.6889 30.3687 47.6887 30.3696 47.6885 30.3704C47.6884 30.3709 47.6883 30.3715 47.6882 30.3717C47.6881 30.3724 47.6879 30.373 49.6346 30.8317Z" fill="#8D58E3" mask="url(#path-12-inside-4_1_694)" />
    </symbol>
    <symbol id="action1" viewBox="0 0 45 32">
        <path d="M8.74216 8.80078H5.51645C4.8152 8.80078 4.25421 9.36178 4.25421 10.063C4.25421 10.7643 4.8152 11.3253 5.51645 11.3253H8.74216C9.4434 11.3253 10.0044 10.7643 10.0044 10.063C10.0044 9.36178 9.4434 8.80078 8.74216 8.80078Z" fill="#E9793A" />
        <path d="M8.74218 14.7378H3.36599C2.66475 14.7378 2.10376 15.2988 2.10376 16C2.10376 16.7013 2.66475 17.2623 3.36599 17.2623H8.74218C9.44342 17.2623 10.0044 16.7013 10.0044 16C10.0044 15.2988 9.44342 14.7378 8.74218 14.7378Z" fill="#E9793A" />
        <path d="M8.74215 20.6279H1.26224C0.560993 20.6279 0 21.1889 0 21.8902C0 22.5914 0.560993 23.1524 1.26224 23.1524H8.74215C9.44339 23.1524 10.0044 22.5914 10.0044 21.8902C10.0044 21.1889 9.44339 20.6279 8.74215 20.6279Z" fill="#E9793A" />
        <path d="M43.664 6.69686L29.4522 0.105186C29.1249 -0.0350621 28.7042 -0.0350621 28.3769 0.105186L14.1651 6.69686C13.6976 6.88386 13.4171 7.35135 13.4171 7.8656V24.1812C13.4171 24.6954 13.6976 25.1161 14.1651 25.3499L28.3769 31.8948C28.7042 32.0351 29.1249 32.0351 29.4522 31.8948L43.664 25.3031C44.1315 25.1161 44.412 24.6486 44.412 24.1344V7.8656C44.412 7.35135 44.1315 6.93061 43.664 6.69686ZM27.6289 28.7626L15.9416 23.3397V9.82907L20.2425 11.8393V19.3192C20.2425 20.0205 20.8035 20.5814 21.5048 20.5814C22.206 20.5814 22.767 20.0205 22.767 19.3192V13.008L27.6289 15.252V28.7626ZM28.9379 13.0548L24.5902 11.0446L29.2652 8.89408C29.9197 8.61359 30.2002 7.8656 29.8729 7.2111C29.5924 6.55661 28.8444 6.27611 28.1899 6.60336L21.5983 9.68882L17.7648 7.91235L28.9847 2.72316L40.2046 7.91235L28.9379 13.0548ZM41.8875 23.3397L30.2002 28.7626V15.252L41.8875 9.82907V23.3397Z" fill="#E9793A" />
        <path d="M33.7999 19.2256C33.9869 19.2256 34.1739 19.1789 34.3141 19.0854L38.7553 17.0284C39.4098 16.7479 39.6903 15.9999 39.3631 15.3454C39.0826 14.691 38.3346 14.4105 37.6801 14.7377L33.2389 16.7947C32.5844 17.0752 32.3039 17.8232 32.6311 18.4777C32.8649 18.9452 33.3324 19.2256 33.7999 19.2256Z" fill="#E9793A" />
        <path d="M33.7999 23.9942C33.9869 23.9942 34.1739 23.9475 34.3141 23.854L38.7553 21.797C39.4098 21.5165 39.6903 20.7685 39.3631 20.114C39.0826 19.4595 38.3346 19.179 37.6801 19.5063L33.2389 21.5632C32.5844 21.8437 32.3039 22.5917 32.6311 23.2462C32.8649 23.7137 33.3324 23.9942 33.7999 23.9942Z" fill="#E9793A" />
    </symbol>
    <symbol id="action2" viewBox="0 0 30 32">
        <path d="M1.5894 32V19.0199L1.37748 18.9139C0.529801 18.4371 0 17.4834 0 16.5298V11.2318C0 9.69536 1.21854 8.47682 2.75497 8.47682H4.07947L3.76159 7.84106C3.39073 7.09934 3.17881 6.25166 3.17881 5.40397C3.17881 3.97351 3.76159 2.59603 4.76821 1.5894C5.77483 0.582781 7.15232 0 8.58278 0C10.9139 0 13.1921 1.11258 14.6225 3.01987L14.9404 3.49669L15.2583 3.01987C16.6887 1.11258 18.9669 0 21.298 0C22.1457 0 22.9934 0.211921 23.7351 0.582781C26.3841 1.96026 27.4437 5.19205 26.0662 7.84106L25.8013 8.47682H27.1258C28.6623 8.47682 29.8808 9.69536 29.8808 11.2318V16.5298C29.8808 17.4834 29.351 18.4371 28.5033 18.9139L28.2914 19.0199V32H1.5894ZM16.106 29.6689H25.9603V19.2848H16.106V29.6689ZM3.92053 29.6689H13.7748V19.2848H3.92053V29.6689ZM16.106 16.9536H27.5497V10.8079H16.106V16.9536ZM2.33113 16.9536H13.7748V10.8079H2.33113V16.9536ZM21.298 2.33113C18.4371 2.33113 16.106 4.66225 16.106 7.52318V8.47682H21.298C22.9934 8.47682 24.3709 7.09934 24.3709 5.40397C24.3709 3.70861 22.9934 2.33113 21.298 2.33113ZM8.58278 2.33113C6.88742 2.33113 5.50993 3.70861 5.50993 5.40397C5.50993 7.09934 6.88742 8.47682 8.58278 8.47682H13.7748V7.52318C13.7748 4.66225 11.4437 2.33113 8.58278 2.33113Z" fill="#E9793A" />
    </symbol>
    <symbol id="action3" viewBox="0 0 32 32">
        <path d="M16.0001 16C14.457 16 12.9771 15.387 11.886 14.2959C10.7949 13.2048 10.1819 11.7249 10.1819 10.1818V1.45455C10.1819 1.06878 10.3351 0.698807 10.6079 0.426026C10.8807 0.153246 11.2507 0 11.6364 0H20.3637C20.7495 0 21.1194 0.153246 21.3922 0.426026C21.665 0.698807 21.8182 1.06878 21.8182 1.45455V10.1818C21.8182 11.7249 21.2053 13.2048 20.1141 14.2959C19.023 15.387 17.5431 16 16.0001 16ZM13.091 2.90909V10.1818C13.091 10.9534 13.3975 11.6933 13.943 12.2389C14.4886 12.7844 15.2285 13.0909 16.0001 13.0909C16.7716 13.0909 17.5115 12.7844 18.0571 12.2389C18.6027 11.6933 18.9092 10.9534 18.9092 10.1818V2.90909H13.091Z" fill="#E9793A" />
        <path d="M6.54558 16C5.5356 16.0197 4.53635 15.7899 3.63649 15.3309C2.53929 14.7922 1.61615 13.9552 0.972965 12.9158C0.329783 11.8764 -0.0073908 10.6768 0.000122891 9.45455C0.000321296 9.28588 0.0298522 9.11854 0.0873955 8.96L2.99649 0.96C3.09812 0.678879 3.2839 0.4359 3.52855 0.264126C3.7732 0.0923526 4.06483 0.000127185 4.36376 0H11.6365C12.0223 0 12.3922 0.153246 12.665 0.426026C12.9378 0.698807 13.091 1.06878 13.091 1.45455V9.45455C13.0872 11.1893 12.3963 12.852 11.1697 14.0786C9.94299 15.3053 8.28036 15.9962 6.54558 16ZM2.90921 9.68727C2.95348 10.3296 3.16819 10.9486 3.53124 11.4804C3.89428 12.0122 4.39253 12.4376 4.97467 12.7127C5.45933 12.9658 5.99884 13.0957 6.54558 13.0909C7.51 13.0909 8.43492 12.7078 9.11687 12.0258C9.79882 11.3439 10.1819 10.419 10.1819 9.45455V2.90909H5.38194L2.90921 9.68727Z" fill="#E9793A" />
        <path d="M25.4546 16C23.7199 15.9962 22.0572 15.3053 20.8305 14.0786C19.6039 12.852 18.913 11.1893 18.9092 9.45455V1.45455C18.9092 1.06878 19.0624 0.698807 19.3352 0.426026C19.608 0.153246 19.978 0 20.3637 0H27.6365C27.9354 0.000127185 28.227 0.0923526 28.4717 0.264126C28.7163 0.4359 28.9021 0.678879 29.0037 0.96L31.9128 8.96C31.9704 9.11854 31.9999 9.28588 32.0001 9.45455C31.9991 10.6935 31.6458 11.9066 30.9813 12.9522C30.3168 13.9979 29.3686 14.833 28.2474 15.36C27.3807 15.7928 26.4232 16.0122 25.4546 16ZM21.8183 2.90909V9.45455C21.8183 10.419 22.2014 11.3439 22.8833 12.0258C23.5653 12.7078 24.4902 13.0909 25.4546 13.0909C25.96 13.0889 26.458 12.9694 26.9092 12.7418C27.5153 12.4779 28.0385 12.0544 28.4227 11.5164C28.807 10.9785 29.038 10.3462 29.091 9.68727L26.6183 2.90909H21.8183Z" fill="#E9793A" />
        <path d="M27.6365 32H4.36373C3.97796 32 3.60799 31.8468 3.33521 31.574C3.06243 31.3012 2.90918 30.9312 2.90918 30.5455V14.0364C2.91022 13.7878 2.97494 13.5436 3.09716 13.3272C3.21939 13.1108 3.39504 12.9293 3.60736 12.8C3.82848 12.6723 4.07931 12.6051 4.33463 12.6051C4.58996 12.6051 4.84079 12.6723 5.06191 12.8C5.51312 13.0276 6.01109 13.1471 6.51645 13.1491C7.00136 13.153 7.48217 13.0599 7.93057 12.8753C8.37897 12.6907 8.78591 12.4182 9.12745 12.074C9.46899 11.7297 9.73822 11.3206 9.91931 10.8708C10.1004 10.4209 10.1897 9.93941 10.1819 9.45455C10.1819 9.06878 10.3352 8.69881 10.6079 8.42603C10.8807 8.15325 11.2507 8 11.6365 8C12.0222 8 12.3922 8.15325 12.665 8.42603C12.9378 8.69881 13.091 9.06878 13.091 9.45455V10.1818C13.091 10.9534 13.3975 11.6933 13.9431 12.2389C14.4886 12.7844 15.2285 13.0909 16.0001 13.0909C16.7716 13.0909 17.5116 12.7844 18.0571 12.2389C18.6027 11.6933 18.9092 10.9534 18.9092 10.1818V9.45455C18.9092 9.06878 19.0624 8.69881 19.3352 8.42603C19.608 8.15325 19.978 8 20.3637 8C20.7495 8 21.1195 8.15325 21.3922 8.42603C21.665 8.69881 21.8183 9.06878 21.8183 9.45455C21.8183 10.419 22.2014 11.3439 22.8833 12.0258C23.5653 12.7078 24.4902 13.0909 25.4546 13.0909C25.96 13.0889 26.458 12.9694 26.9092 12.7418C27.1303 12.6142 27.3811 12.5469 27.6365 12.5469C27.8918 12.5469 28.1426 12.6142 28.3637 12.7418C28.576 12.8711 28.7517 13.0526 28.8739 13.269C28.9961 13.4855 29.0609 13.7296 29.0619 13.9782V30.5455C29.062 30.9262 28.9127 31.2919 28.6462 31.5638C28.3797 31.8358 28.0172 31.9924 27.6365 32ZM5.81827 29.0909H26.1819V16C25.9397 16.0149 25.6968 16.0149 25.4546 16C24.5278 15.9987 23.6117 15.801 22.7668 15.4199C21.9219 15.0388 21.1673 14.483 20.5528 13.7891C20.0079 14.4739 19.3156 15.0269 18.5273 15.407C17.7391 15.7872 16.8752 15.9846 16.0001 15.9846C15.125 15.9846 14.2611 15.7872 13.4729 15.407C12.6846 15.0269 11.9923 14.4739 11.4474 13.7891C10.7523 14.5784 9.87906 15.1906 8.90012 15.5751C7.92119 15.9596 6.86472 16.1053 5.81827 16V29.0909Z" fill="#E9793A" />
        <path d="M30.5456 31.9999H1.45467C1.0689 31.9999 0.698929 31.8467 0.426149 31.5739C0.153368 31.3011 0.00012207 30.9311 0.00012207 30.5454C0.00012207 30.1596 0.153368 29.7896 0.426149 29.5168C0.698929 29.2441 1.0689 29.0908 1.45467 29.0908H30.5456C30.9313 29.0908 31.3013 29.2441 31.5741 29.5168C31.8469 29.7896 32.0001 30.1596 32.0001 30.5454C32.0001 30.9311 31.8469 31.3011 31.5741 31.5739C31.3013 31.8467 30.9313 31.9999 30.5456 31.9999Z" fill="#E9793A" />
        <path d="M20.3637 32.0001H11.6364C11.2507 32.0001 10.8807 31.8468 10.6079 31.5741C10.3351 31.3013 10.1819 30.9313 10.1819 30.5455V20.3637C10.1819 19.978 10.3351 19.608 10.6079 19.3352C10.8807 19.0624 11.2507 18.9092 11.6364 18.9092H20.3637C20.7495 18.9092 21.1194 19.0624 21.3922 19.3352C21.665 19.608 21.8182 19.978 21.8182 20.3637V30.5455C21.8182 30.9313 21.665 31.3013 21.3922 31.5741C21.1194 31.8468 20.7495 32.0001 20.3637 32.0001ZM13.091 29.091H18.9092V21.8183H13.091V29.091Z" fill="#E9793A" />
    </symbol>
    <symbol id="action4" viewBox="0 0 40 26">
        <path d="M1.66663 6.5H38.3333M6.73909 13.0542H15.8333M6.73909 16.9542H11.6666M25.8333 19.5L34.1666 11.375" stroke="#E9793A" stroke-width="2.5" stroke-linecap="round" />
        <path d="M28.1667 12.1875C28.1667 12.9577 27.5191 13.625 26.6667 13.625C25.8142 13.625 25.1667 12.9577 25.1667 12.1875C25.1667 11.4173 25.8142 10.75 26.6667 10.75C27.5191 10.75 28.1667 11.4173 28.1667 12.1875Z" stroke="#E9793A" stroke-width="2" />
        <path d="M34.8333 18.6875C34.8333 19.4577 34.1858 20.125 33.3333 20.125C32.4809 20.125 31.8333 19.4577 31.8333 18.6875C31.8333 17.9173 32.4809 17.25 33.3333 17.25C34.1858 17.25 34.8333 17.9173 34.8333 18.6875Z" stroke="#E9793A" stroke-width="2" />
    </symbol>
</svg>
