<svg display="none" xmlns="http://www.w3.org/2000/svg">
    <symbol id="geo" viewBox="0 0 12 14">
        <path d="M9.98212 9.9355L5.83397 14L1.68582 9.87098C-0.582694 7.61292 -0.582694 3.9355 1.68582 1.67743C3.95434 -0.580629 7.64879 -0.580629 9.91731 1.67743C12.2506 4.00001 12.2506 7.61292 9.98212 9.9355ZM5.83397 7.74195C6.93582 7.74195 7.77842 6.90324 7.77842 5.80647C7.77842 4.70969 6.93582 3.87098 5.83397 3.87098C4.73212 3.87098 3.88953 4.70969 3.88953 5.80647C3.88953 6.90324 4.73212 7.74195 5.83397 7.74195Z" fill="#7B94B0" />
    </symbol>

    <symbol id="wezom_logo" viewBox="0 0 114 41">
        <path fill-rule="evenodd" clip-rule="evenodd" d="M111.763 2.45309C110.368 1.06641 108.483 0.28833 106.519 0.28833C104.554 0.28833 102.67 1.06641 101.275 2.45309L76.3845 27.789C74.9665 29.2537 74.1733 31.2146 74.1733 33.2557C74.1733 35.2968 74.9665 37.2576 76.3845 38.7223C77.0757 39.4398 77.904 40.0104 78.8199 40.4002C79.7359 40.7899 80.7207 40.9907 81.7157 40.9907C82.7107 40.9907 83.6956 40.7899 84.6115 40.4002C85.5274 40.0104 86.3557 39.4398 87.0469 38.7223L111.763 13.4215C113.183 11.9508 113.977 9.98417 113.977 7.93728C113.977 5.89039 113.183 3.92373 111.763 2.45309Z" fill="#2C9323" />
        <path fill-rule="evenodd" clip-rule="evenodd" d="M51.7037 2.45307C52.3974 1.73995 53.2264 1.17322 54.142 0.786259C55.0576 0.399302 56.0412 0.199951 57.0349 0.199951C58.0285 0.199951 59.0121 0.399302 59.9277 0.786259C60.8433 1.17322 61.6723 1.73995 62.366 2.45307L87.0818 27.789C88.4998 29.2537 89.293 31.2145 89.293 33.2556C89.293 35.2967 88.4998 37.2576 87.0818 38.7223C86.3906 39.4398 85.5623 40.0104 84.6464 40.4001C83.7305 40.7899 82.7456 40.9907 81.7506 40.9907C80.7556 40.9907 79.7707 40.7899 78.8548 40.4001C77.9389 40.0104 77.1106 39.4398 76.4194 38.7223L51.7037 13.4215C50.2752 11.9551 49.4755 9.98682 49.4755 7.93726C49.4755 5.88771 50.2752 3.91944 51.7037 2.45307Z" fill="#2C9323" />
        <path fill-rule="evenodd" clip-rule="evenodd" d="M62.4011 2.45297C61.7099 1.73548 60.8816 1.16487 59.9657 0.775144C59.0497 0.38542 58.0649 0.18457 57.0699 0.18457C56.0748 0.18457 55.09 0.38542 54.1741 0.775144C53.2582 1.16487 52.4299 1.73548 51.7387 2.45297L27.023 27.7889C25.6049 29.2536 24.8118 31.2144 24.8118 33.2555C24.8118 35.2966 25.6049 37.2575 27.023 38.7222C27.7167 39.4353 28.5457 40.0021 29.4613 40.389C30.3769 40.776 31.3605 40.9753 32.3541 40.9753C33.3478 40.9753 34.3314 40.776 35.247 40.389C36.1626 40.0021 36.9916 39.4353 37.6853 38.7222L62.4011 13.3863C63.8191 11.9216 64.6123 9.96073 64.6123 7.91964C64.6123 5.87854 63.8191 3.91771 62.4011 2.45297Z" fill="#2C9323" />
        <path fill-rule="evenodd" clip-rule="evenodd" d="M2.2024 2.27778C2.8961 1.56466 3.72517 0.997923 4.64076 0.610966C5.55636 0.224009 6.53995 0.0246582 7.53359 0.0246582C8.52723 0.0246582 9.51083 0.224009 10.4264 0.610966C11.342 0.997923 12.1711 1.56466 12.8648 2.27778L37.5805 27.6137C38.9986 29.0784 39.7917 31.0392 39.7917 33.0803C39.7917 35.1214 38.9986 37.0823 37.5805 38.547C36.8868 39.2601 36.0577 39.8269 35.1421 40.2138C34.2266 40.6008 33.243 40.8001 32.2493 40.8001C31.2557 40.8001 30.2721 40.6008 29.3565 40.2138C28.4409 39.8269 27.6118 39.2601 26.9181 38.547L2.2024 13.2111C0.78434 11.7464 -0.00878906 9.78554 -0.00878906 7.74445C-0.00878906 5.70335 0.78434 3.74252 2.2024 2.27778Z" fill="#2C9323" />
    </symbol>

    <symbol id="search" viewBox="0 0 32 32">
        <circle cx="14" cy="14" r="10" stroke="#202454" stroke-width="2" stroke-miterlimit="10" />
        <line x1="21.4142" y1="21" x2="28" y2="27.5858" stroke="#202454" stroke-width="2" stroke-miterlimit="10" stroke-linecap="round" />
    </symbol>

    <symbol id="human" viewBox="0 0 22 26">
        <g clip-path="url(#clip0)">
            <circle cx="11" cy="8" r="6" stroke="#202454" stroke-width="2" stroke-miterlimit="10" />
            <path d="M1 24C1 20.6863 3.68629 18 7 18H15C18.3137 18 21 20.6863 21 24V27H1V24Z" stroke="#202454" stroke-width="2" stroke-miterlimit="10" />
        </g>
    </symbol>

    <symbol id="like" viewBox="0 0 32 32">
        <path d="M15.8851 6.79804L16.5572 7.38524L17.2167 6.78397C19.9291 4.31118 24.3252 4.42616 26.9257 7.02267C29.6458 9.73872 29.6506 13.9816 27.1757 16.7006L16.5346 27.5785L5.77895 16.8391C3.29891 13.9841 3.44034 9.73856 6.02511 7.1577C8.76372 4.42325 13.0358 4.30874 15.8851 6.79804Z" stroke="#202454" stroke-width="2" />
    </symbol>

    <symbol id="basket" viewBox="0 0 32 32">
        <path d="M2.00005 12.5999C1.90005 12.0999 2.30005 11.4999 2.80005 11.3999C2.90005 11.3999 2.90005 11.3999 3.00005 11.3999H27.6C28.2 11.3999 28.6 11.7999 28.6 12.3999C28.6 12.4999 28.6 12.4999 28.6 12.5999L26 27.5999C25.9 28.0999 25.5 28.3999 25 28.3999H5.60005C5.10005 28.3999 4.70005 28.0999 4.60005 27.5999L2.00005 12.5999Z" stroke="#202454" stroke-width="2" stroke-miterlimit="10" />
        <path d="M11.8 2.3999L7.80005 10.3999M18.8 2.3999L22.8 10.3999L18.8 2.3999Z" stroke="#202454" stroke-width="2" stroke-miterlimit="10" stroke-linecap="round" stroke-linejoin="round" />
    </symbol>

    <symbol id="facebook" viewBox="0 0 12 24">
        <path d="M8 13.8H10.8571L12 9H8V6.6C8 5.364 8 4.2 10.2857 4.2H12V0.168C11.6274 0.1164 10.2206 0 8.73486 0C5.632 0 3.42857 1.9884 3.42857 5.64V9H0V13.8H3.42857V24H8V13.8Z" fill="white" />
    </symbol>

    <symbol id="instagram" viewBox="0 0 24 24">
        <path d="M11.625 8.4C10.7001 8.4 9.813 8.77928 9.15897 9.45442C8.50493 10.1295 8.1375 11.0452 8.1375 12C8.1375 12.9548 8.50493 13.8705 9.15897 14.5456C9.813 15.2207 10.7001 15.6 11.625 15.6C12.5499 15.6 13.437 15.2207 14.091 14.5456C14.7451 13.8705 15.1125 12.9548 15.1125 12C15.1125 11.0452 14.7451 10.1295 14.091 9.45442C13.437 8.77928 12.5499 8.4 11.625 8.4ZM11.625 6C13.1666 6 14.645 6.63214 15.7351 7.75736C16.8251 8.88258 17.4375 10.4087 17.4375 12C17.4375 13.5913 16.8251 15.1174 15.7351 16.2426C14.645 17.3679 13.1666 18 11.625 18C10.0834 18 8.605 17.3679 7.51494 16.2426C6.42489 15.1174 5.8125 13.5913 5.8125 12C5.8125 10.4087 6.42489 8.88258 7.51494 7.75736C8.605 6.63214 10.0834 6 11.625 6ZM19.1812 5.7C19.1812 6.09783 19.0282 6.47936 18.7556 6.76066C18.4831 7.04197 18.1135 7.2 17.7281 7.2C17.3427 7.2 16.9731 7.04197 16.7006 6.76066C16.4281 6.47936 16.275 6.09783 16.275 5.7C16.275 5.30218 16.4281 4.92064 16.7006 4.63934C16.9731 4.35804 17.3427 4.2 17.7281 4.2C18.1135 4.2 18.4831 4.35804 18.7556 4.63934C19.0282 4.92064 19.1812 5.30218 19.1812 5.7ZM11.625 2.4C8.74897 2.4 8.27933 2.4084 6.94129 2.4696C6.02989 2.514 5.41841 2.64 4.85111 2.868C4.34659 3.0696 3.98272 3.3108 3.59561 3.7116C3.23176 4.07448 2.952 4.5175 2.77721 5.0076C2.55634 5.5956 2.43428 6.2256 2.39243 7.1652C2.33198 8.49 2.325 8.9532 2.325 12C2.325 14.9688 2.33314 15.4536 2.39243 16.8348C2.43544 17.7744 2.5575 18.4068 2.77721 18.9912C2.97484 19.5132 3.20734 19.8888 3.59329 20.2872C3.98505 20.6904 4.34891 20.9316 4.84879 21.1308C5.42306 21.36 6.03454 21.4872 6.94129 21.5304C8.22469 21.5928 8.67341 21.6 11.625 21.6C14.501 21.6 14.9707 21.5916 16.3087 21.5304C17.2178 21.486 17.8304 21.36 18.3977 21.1332C18.9011 20.9304 19.2673 20.6892 19.6532 20.2908C20.045 19.8864 20.2787 19.5108 20.4716 18.9948C20.6925 18.4032 20.8157 17.7708 20.8576 16.8348C20.918 15.51 20.925 15.0468 20.925 12C20.925 9.0312 20.9169 8.5464 20.8576 7.1652C20.8146 6.2268 20.6925 5.5932 20.4716 5.0076C20.2964 4.518 20.0172 4.07515 19.6544 3.7116C19.303 3.33582 18.8738 3.047 18.3989 2.8668C17.8293 2.6388 17.2178 2.5128 16.3087 2.4696C15.0253 2.4072 14.5766 2.4 11.625 2.4ZM11.625 0C14.7835 0 15.1776 0.0119999 16.4168 0.0719999C17.6549 0.132 18.4977 0.3324 19.2394 0.63C20.0066 0.9348 20.653 1.3476 21.2993 2.0136C21.8904 2.61348 22.3478 3.33911 22.6397 4.14C22.9268 4.9044 23.1221 5.7756 23.1803 7.0536C23.2349 8.3328 23.25 8.7396 23.25 12C23.25 15.2604 23.2384 15.6672 23.1803 16.9464C23.1221 18.2244 22.9268 19.0944 22.6397 19.86C22.3487 20.6613 21.8912 21.3871 21.2993 21.9864C20.718 22.5964 20.0151 23.0685 19.2394 23.37C18.4989 23.6664 17.6549 23.868 16.4168 23.928C15.1776 23.9844 14.7835 24 11.625 24C8.46649 24 8.0724 23.988 6.83317 23.928C5.59511 23.868 4.7523 23.6664 4.01062 23.37C3.23445 23.0694 2.53138 22.5971 1.95068 21.9864C1.35943 21.3866 0.90202 20.661 0.610313 19.86C0.322013 19.0956 0.127875 18.2244 0.0697499 16.9464C0.0151124 15.6672 0 15.2604 0 12C0 8.7396 0.0116249 8.3328 0.0697499 7.0536C0.127875 5.7744 0.322013 4.9056 0.610313 4.14C0.901212 3.33862 1.35873 2.61279 1.95068 2.0136C2.53154 1.40308 3.23457 0.930875 4.01062 0.63C4.7523 0.3324 5.59395 0.132 6.83317 0.0719999C8.0724 0.0155999 8.46649 0 11.625 0Z" fill="white" />
    </symbol>

    <symbol id="viber" viewBox="0 0 23 24">
        <path d="M21.3 13.05C21.6 10.35 21.6 8.1 21.3 6.15C21.0682 4.60457 20.3295 3.17994 19.2 2.1L18 1.35L15.3 0.45C14.1 0.15 12.6 0 11.1 0H10.5C8.41176 0.0684215 6.34265 0.421685 4.35 1.05C3.45 1.35 2.85 1.8 2.25 2.25C0.75 3.75 0.15 6 0 9.15V11.25L0.15 13.5L0.9 15.75C1.2826 16.5698 1.84564 17.2925 2.54698 17.8639C3.24833 18.4354 4.06982 18.8409 4.95 19.05C4.99582 20.7001 5.04582 22.3501 5.1 24L5.55 23.85L9.15 19.5C11.8806 19.6285 14.6143 19.3248 17.25 18.6C17.8573 18.2626 18.4574 17.9126 19.05 17.55L20.1 16.5L20.85 15L21.3 12.9V13.05ZM14.1 9C14.1 9.3 13.95 9.45 13.65 9.45L13.5 9C13.5 7.8 12.9 7.2 11.85 7.2L11.55 7.05V6.6H11.85C13.35 6.6 14.1 7.35 14.25 8.85L14.1 9ZM15.15 9.6C15.15 8.55 14.85 7.5 14.1 6.75C13.35 6 12.45 5.55 11.1 5.55L10.8 5.25V4.95L11.25 4.8C12.75 4.8 13.8 5.4 14.55 6.3C15.45 7.2 15.75 8.4 15.75 9.6V9.9H15.3L15.15 9.6ZM17.55 10.35L17.4 10.65H17.1L16.95 10.35C16.95 8.25 16.2 6.75 15 5.55C14.4163 4.95352 13.7147 4.48535 12.9398 4.17541C12.165 3.86547 11.334 3.72058 10.5 3.75C10.35 3.75 10.2 3.75 10.2 3.45C10.2 3.15 10.35 3 10.5 3C11.4386 2.99979 12.3677 3.18699 13.233 3.55063C14.0983 3.91427 14.8822 4.44702 15.5389 5.11765C16.1955 5.78827 16.7117 6.58326 17.057 7.45599C17.4024 8.32873 17.57 9.26164 17.55 10.2V10.35ZM16.95 15.45L15.75 16.95C15.3 17.25 14.7 17.4 14.25 17.1C12.3138 16.3677 10.4947 15.3571 8.85 14.1C7.28909 12.889 6.00963 11.3537 5.1 9.6C4.60082 8.72544 4.15014 7.82408 3.75 6.9V6.75C3.6 6.15 3.75 5.7 4.05 5.25L5.55 3.9C6 3.75 6.45 3.9 6.75 4.2C7.27583 5.01635 7.82607 5.81672 8.4 6.6C8.85 7.2 8.7 7.65 8.4 8.1L7.65 8.4L7.35 8.7V9.6L7.95 10.5L8.7 11.7L9.9 12.75L11.7 13.65C12 13.65 12.3 13.65 12.45 13.35L13.05 12.75C13.35 12.3 13.8 12.15 14.4 12.45L16.8 14.25C17.1 14.55 17.25 15 16.95 15.45Z" fill="white" />
    </symbol>

    <symbol id="chat" viewBox="0 0 40 40">
        <path d="M16.6667 5H23.3333C26.8696 5 30.2609 6.40476 32.7614 8.90524C35.2619 11.4057 36.6667 14.7971 36.6667 18.3333C36.6667 21.8696 35.2619 25.2609 32.7614 27.7614C30.2609 30.2619 26.8696 31.6667 23.3333 31.6667V37.5C15 34.1667 3.33334 29.1667 3.33334 18.3333C3.33334 14.7971 4.7381 11.4057 7.23858 8.90524C9.73907 6.40476 13.1305 5 16.6667 5Z" fill="#E77E42" />
    </symbol>

    <symbol id="post-us" viewBox="0 0 40 40">
        <path d="M8.33335 8H32.3333C32.687 8 33.0261 8.14048 33.2762 8.39052C33.5262 8.64057 33.6667 8.97971 33.6667 9.33333V30.6667C33.6667 31.0203 33.5262 31.3594 33.2762 31.6095C33.0261 31.8595 32.687 32 32.3333 32H8.33335C7.97973 32 7.64059 31.8595 7.39054 31.6095C7.14049 31.3594 7.00002 31.0203 7.00002 30.6667V9.33333C7.00002 8.97971 7.14049 8.64057 7.39054 8.39052C7.64059 8.14048 7.97973 8 8.33335 8ZM31 13.6507L20.4293 23.1173L9.66668 13.6213V29.3333H31V13.6507ZM10.348 10.6667L20.4147 19.5493L30.336 10.6667H10.348Z" fill="#E77E42" />
    </symbol>

    <symbol id="vector" viewBox="0 0 9 14">
        <path d="M1 1L7 7L1 13" stroke="white" stroke-width="2" />
    </symbol>

    <symbol id="portmone" viewBox="0 0 85 28">
        <path d="M84.7863 0.0966797H0V27.4471H84.7863V0.0966797Z" fill="#FF0000" />
        <path d="M5.65244 11.3104L7.38463 10.6722V11.4927C7.84047 10.8546 8.56981 10.5811 9.29916 10.5811C10.849 10.5811 12.0342 11.8574 12.0342 13.4073C12.0342 13.4984 12.0342 13.4984 12.0342 13.5896C12.2165 15.0483 11.1225 16.4158 9.57266 16.5981C9.4815 16.5981 9.39033 16.5981 9.29916 16.5981C8.56981 16.5981 7.84047 16.2335 7.38463 15.6865V18.3303H5.65244V11.3104ZM10.2108 13.5896C10.302 12.7691 9.755 12.0397 9.02565 11.9486C8.29631 11.8574 7.4758 12.4044 7.38463 13.1338C7.38463 13.2249 7.38463 13.4073 7.38463 13.4984C7.29346 14.3189 7.84047 15.0483 8.56981 15.1395C9.29916 15.2306 10.1197 14.6836 10.2108 13.9543C10.2108 13.8631 10.2108 13.6808 10.2108 13.5896Z" fill="white" />
        <path d="M18.8718 10.5811H20.604V11.5839C20.9687 10.7634 21.5157 10.5811 22.6097 10.5811V12.0397H22.5185C21.3333 12.0397 20.6952 12.9514 20.6952 14.4101V16.507H18.963V10.5811H18.8718Z" fill="white" />
        <path d="M23.7949 14.866V12.0398H23.0655V10.5811H23.7949V9.66943L25.5271 9.03125V10.5811H26.9858V12.0398H25.5271V14.5013C25.5271 14.866 25.7094 15.0483 25.9829 15.0483C26.2564 15.0483 26.5299 14.9572 26.7122 14.866V16.2335C26.3476 16.507 25.8917 16.5982 25.4359 16.5982C24.433 16.507 23.7949 16.1424 23.7949 14.866Z" fill="white" />
        <path d="M27.5328 10.5814H29.1738V11.4019C29.5385 10.8549 30.1766 10.4902 30.8148 10.4902C31.453 10.4902 32.0912 10.7637 32.4558 11.4019C32.9117 10.8549 33.641 10.4902 34.3704 10.4902C35.5555 10.4902 36.2849 11.2196 36.2849 12.6783V16.5073H34.8262V13.2253C34.8262 12.4048 34.4615 12.0401 33.8234 12.0401C33.1852 12.0401 32.8205 12.4048 32.8205 13.2253V16.5073H31.0883V13.2253C31.0883 12.4048 30.7236 12.0401 30.0855 12.0401C29.4473 12.0401 29.1738 12.4048 29.1738 13.2253V16.5073H27.4416V10.5814H27.5328Z" fill="white" />
        <path d="M43.6695 10.5814H45.4017V11.4019C45.7664 10.8549 46.4046 10.4902 47.1339 10.4902C48.2279 10.4902 49.0484 11.3107 49.1396 12.3136C49.1396 12.4048 49.1396 12.4959 49.1396 12.6783V16.5073H47.4074V13.2253C47.4074 12.4048 47.0427 12.0401 46.4046 12.0401C45.7664 12.0401 45.4017 12.4048 45.4017 13.2253V16.5073H43.6695V10.5814Z" fill="white" />
        <path d="M49.6866 13.6809C49.5954 12.0399 50.8718 10.7635 52.4217 10.6724H52.5128C54.4273 10.6724 55.339 12.1311 55.339 13.8632C55.339 13.9544 55.339 14.1368 55.339 14.3191H51.2365C51.3276 15.0484 51.9658 15.5043 52.6952 15.4131C53.2422 15.4131 53.698 15.2308 54.1538 14.8661L54.6097 16.1424C54.0627 16.5983 53.4245 16.7806 52.6952 16.7806C51.0541 16.8718 49.6866 15.5954 49.6866 13.9544C49.6866 13.8632 49.6866 13.7721 49.6866 13.6809ZM53.7892 13.0427C53.7892 12.4046 53.2422 11.8575 52.604 11.7664C51.9658 11.7664 51.4188 12.3134 51.3276 13.0427H53.7892Z" fill="white" />
        <path d="M57.8917 13.5896C57.8917 11.9486 59.1681 10.5811 60.8091 10.5811H60.9003C61.5384 10.5811 62.1766 10.7634 62.7236 11.1281C62.6325 11.4927 62.1766 12.4956 62.1766 12.4956C61.8119 12.1309 61.3561 11.9486 60.8091 11.9486C59.8974 12.0397 59.2592 12.8603 59.4416 13.7719C59.5327 14.5013 60.1709 15.1395 60.9003 15.1395C61.4473 15.1395 61.9031 14.866 62.2678 14.5013L62.8148 15.8688C62.2678 16.3246 61.6296 16.507 60.9003 16.507C59.2592 16.507 57.8917 15.2306 57.8917 13.5896C57.8917 13.6808 57.8917 13.5896 57.8917 13.5896Z" fill="white" />
        <path d="M70.0171 10.5814H71.7493V11.4019C72.114 10.8549 72.7521 10.4902 73.3903 10.4902C74.0285 10.4902 74.6667 10.7637 75.0314 11.4019C75.4872 10.8549 76.2165 10.4902 76.9459 10.4902C78.1311 10.4902 78.8604 11.2196 78.8604 12.6783V16.5073H77.4017V13.2253C77.4017 12.4048 77.037 12.0401 76.3989 12.0401C75.7607 12.0401 75.396 12.4048 75.396 13.2253V16.5073H73.6638V13.2253C73.6638 12.4048 73.2992 12.0401 72.661 12.0401C72.0228 12.0401 71.6581 12.4048 71.6581 13.2253V16.5073H69.9259L70.0171 10.5814Z" fill="white" />
        <path d="M56.6154 16.5983C57.0685 16.5983 57.4359 16.1901 57.4359 15.6866C57.4359 15.1831 57.0685 14.7749 56.6154 14.7749C56.1622 14.7749 55.7949 15.1831 55.7949 15.6866C55.7949 16.1901 56.1622 16.5983 56.6154 16.5983Z" fill="white" />
        <path d="M15.3162 16.5984C13.584 16.5984 12.2165 15.2308 12.2165 13.4986C12.2165 11.7664 13.584 10.3989 15.3162 10.3989C17.0484 10.3989 18.416 11.7664 18.416 13.4986C18.3248 15.2308 16.9573 16.5984 15.3162 16.5984ZM15.3162 12.04C14.4957 12.04 13.8575 12.6781 13.8575 13.4986C13.8575 14.3192 14.4957 14.9573 15.3162 14.9573C16.1367 14.9573 16.7749 14.3192 16.7749 13.4986C16.6838 12.7693 16.0456 12.1311 15.3162 12.04Z" fill="white" />
        <path d="M40.114 16.5984C38.3818 16.5984 37.0143 15.2308 37.0143 13.4986C37.0143 11.7664 38.3818 10.3989 40.114 10.3989C41.8462 10.3989 43.2137 11.7664 43.2137 13.4986C43.2137 15.2308 41.8462 16.5984 40.114 16.5984ZM40.114 12.04C39.2935 12.04 38.6553 12.6781 38.6553 13.4986C38.6553 14.3192 39.2935 14.9573 40.114 14.9573C40.9345 14.9573 41.5727 14.3192 41.5727 13.4986C41.5727 12.7693 40.9345 12.1311 40.114 12.04Z" fill="white" />
        <path d="M66.188 16.5984C64.4558 16.5984 63.0883 15.2308 63.0883 13.4986C63.0883 11.7664 64.4558 10.3989 66.188 10.3989C67.9202 10.3989 69.2877 11.7664 69.2877 13.4986C69.2877 15.2308 67.9202 16.5984 66.188 16.5984ZM66.188 12.04C65.3675 12.04 64.7293 12.6781 64.7293 13.4986C64.7293 14.3192 65.3675 14.9573 66.188 14.9573C67.0085 14.9573 67.6467 14.3192 67.6467 13.4986C67.6467 12.7693 67.0085 12.1311 66.188 12.04Z" fill="white" />
    </symbol>

    <symbol id="mastercard" viewBox="0 0 42 32">
        <path d="M41.5271 12.7635C41.5271 19.7835 35.7835 25.5271 28.7635 25.5271C21.7436 25.5271 16 19.7835 16 12.7635C16 5.74359 21.7436 0 28.7635 0C35.7835 0 41.5271 5.74359 41.5271 12.7635Z" fill="#F79F1A" />
        <path d="M25.755 12.7635C25.755 19.7835 20.0114 25.5271 12.9915 25.5271C5.97153 25.5271 0.227936 19.7835 0.227936 12.7635C0.227936 5.74359 5.97153 0 12.9915 0C20.0114 0 25.755 5.74359 25.755 12.7635Z" fill="#EA001B" />
        <path d="M20.9231 2.73505C15.3618 7.11112 14.4502 15.1339 18.8262 20.6952C19.4644 21.5157 20.1938 22.245 20.9231 22.792C26.4843 18.416 27.396 10.3932 23.02 4.83191C22.3818 4.10257 21.6524 3.37322 20.9231 2.73505Z" fill="#FF5F01" />
        <path d="M3.14532 32H2.41597V28.3533H3.14532V28.8091C3.41882 28.5356 3.78349 28.3533 4.14817 28.2621C4.60401 28.2621 5.05985 28.5356 5.33335 28.9003C5.60685 28.5356 5.97153 28.2621 6.51854 28.2621C7.15672 28.2621 7.70373 28.7179 7.88606 29.3561V31.8177H7.15671V29.7208C7.15671 29.7208 7.15672 29.0826 6.33621 29.0826C5.51569 29.0826 5.42452 29.7208 5.42452 29.7208V31.8177H4.69518V29.7208C4.78634 29.7208 4.69518 29.0826 4.057 29.0826C3.23649 29.0826 3.23649 29.812 3.23649 29.812V32H3.14532Z" fill="white" />
        <path d="M25.0257 28.3533C24.661 28.4444 24.2963 28.6268 24.0228 28.8091V28.2621H23.2935V31.7265H24.0228V29.6296C24.0228 29.6296 24.0228 28.9915 24.8433 28.9915C24.9345 28.9915 25.1168 28.9915 25.208 29.0826L25.4815 28.4444C25.3903 28.3533 25.208 28.3533 25.0257 28.3533Z" fill="white" />
        <path d="M35.3277 28.3533C34.963 28.4444 34.5983 28.6268 34.3248 28.8091V28.2621H33.5955V31.7265H34.3248V29.6296C34.3248 29.6296 34.3248 28.9915 35.1453 28.9915C35.2365 28.9915 35.4188 28.9915 35.51 29.0826L35.7835 28.4444C35.6923 28.3533 35.51 28.3533 35.3277 28.3533Z" fill="white" />
        <path d="M10.0741 28.3533C9.16241 28.3533 8.34191 29.1738 8.43308 30.1766C8.43308 31.1795 9.16242 32 10.1653 32C10.6211 32 10.9858 31.8177 11.3505 31.5442V31.8177H12.0798V28.3533H11.0769V28.9003C11.1681 28.9003 10.7123 28.3533 10.0741 28.3533ZM10.1653 28.9914C10.8034 28.9914 11.3505 29.4473 11.3505 29.9943C11.3505 30.6325 10.8946 31.1795 10.3476 31.1795C9.70942 31.1795 9.16241 30.7236 9.16241 30.1766V30.0855C9.16241 29.5385 9.61826 29.0826 10.1653 28.9914Z" fill="white" />
        <path d="M30.7692 28.3533C29.8576 28.3533 29.0371 29.1738 29.1282 30.1766C29.1282 31.1795 29.8576 32 30.8604 32C31.3162 32 31.7721 31.8177 32.1368 31.5442V31.8177H32.5926V28.3533H31.8633V28.9003C31.5898 28.5356 31.2251 28.3533 30.7692 28.3533ZM30.9516 28.9914C31.5898 28.9914 32.1368 29.4473 32.1368 29.9943C32.1368 30.6325 31.6809 31.1795 31.1339 31.1795C30.4957 31.1795 29.9487 30.7236 29.9487 30.1766V30.0855C29.8576 29.5385 30.3134 29.0826 30.9516 28.9914C30.9516 29.0826 30.9516 29.0826 30.9516 28.9914Z" fill="white" />
        <path d="M37.6069 28.3533C36.6952 28.3533 35.8747 29.1738 35.9658 30.1766C35.9658 31.1795 36.6952 32 37.698 32C38.0627 32 38.5185 31.8176 38.792 31.5441V31.8176H39.5214V27.0769H38.5185V28.8091C38.792 28.9003 38.3362 28.3533 37.6069 28.3533ZM37.7892 28.9914C38.4274 28.9914 38.9744 29.4473 38.9744 29.9943C38.9744 30.6325 38.5185 31.1795 37.9715 31.1795C37.3334 31.1795 36.7863 30.7236 36.7863 30.1766V30.0855C36.6952 29.5384 37.151 29.0826 37.7892 28.9914Z" fill="white" />
        <path d="M14.0855 31.9088C13.5385 31.9088 13.0826 31.7265 12.6268 31.453L12.9003 30.9971C13.265 31.1795 13.6296 31.2707 13.9943 31.2707C14.2678 31.2707 14.8148 31.1795 14.8148 30.906C14.8148 30.6325 13.9943 30.4501 13.9943 30.4501C13.9943 30.4501 12.718 30.4501 12.718 29.3561C12.718 28.7179 13.3561 28.2621 14.1767 28.2621C14.6325 28.3533 15.0883 28.4444 15.5442 28.7179L15.1795 29.265C14.8148 29.1738 14.5413 28.9915 14.1767 28.9915C13.9031 28.9915 13.5385 29.1738 13.5385 29.3561C13.5385 30.0855 15.6353 29.265 15.6353 30.7236C15.6353 31.7265 14.8148 31.9088 14.0855 31.9088Z" fill="white" />
        <path d="M16.9117 27.3504V28.3533H16.1823V29.0826H16.9117V30.8148C16.8205 31.3618 17.2764 31.9088 17.9145 32H18.0057C18.2792 31.9088 18.6439 31.9088 18.9174 31.7265L18.6439 30.9972C18.4615 31.0883 18.2792 31.1795 18.0969 31.1795C17.5499 31.1795 17.5499 30.8148 17.5499 30.8148V29.0826H18.8262V28.3533H17.5499V27.3504H16.9117Z" fill="white" />
        <path d="M21.1054 28.2621C20.1026 28.4444 19.4644 29.4473 19.6467 30.359C19.8291 31.0883 20.3761 31.7265 21.1966 31.8177C21.6525 31.7265 22.1083 31.5442 22.473 31.3618L22.1083 30.8148C21.8348 30.9972 21.4701 31.1795 21.1054 31.1795C20.5584 31.1795 20.1026 30.8148 20.1026 30.2678H22.5641C22.6553 30.2678 22.8376 28.2621 21.1054 28.2621ZM21.0143 28.9915H21.1054C21.5613 28.9915 21.9259 29.265 21.9259 29.7208C21.9259 29.7208 21.9259 29.7208 21.9259 29.812H20.1938C20.1938 29.3561 20.4673 28.9915 21.0143 28.9915C20.9231 28.9915 20.9231 28.9915 21.0143 28.9915Z" fill="white" />
        <path d="M28.3989 30.906L28.7636 31.5442C28.3989 31.7265 28.0342 31.9088 27.6695 31.9088C26.6667 31.9088 25.8462 31.1795 25.755 30.1766V30.0855C25.755 29.1738 26.4843 28.3533 27.396 28.3533C27.4872 28.3533 27.4872 28.3533 27.5784 28.3533C28.0342 28.3533 28.3989 28.5356 28.8547 28.7179L28.4901 29.4473C28.3077 29.1738 27.9431 29.0826 27.5784 29.0826C26.9402 29.1738 26.5755 29.812 26.7579 30.4501C26.849 30.906 27.2137 31.1795 27.5784 31.2706C27.8519 31.2706 28.1254 31.1795 28.3989 30.906Z" fill="white" />
        <path d="M40.9801 31.3618C40.8889 31.3618 40.7977 31.3618 40.7066 31.453C40.6154 31.5442 40.6154 31.8177 40.7066 31.9088C40.8889 32 41.0712 32 41.1624 31.9088C41.2536 31.8177 41.2536 31.5442 41.1624 31.453C41.1624 31.3618 41.0712 31.3618 40.9801 31.3618ZM40.9801 32C40.7977 32 40.7066 31.9088 40.7066 31.7265C40.7066 31.5442 40.7977 31.453 40.9801 31.453C41.0712 31.453 41.0712 31.453 41.1624 31.5442C41.2536 31.6353 41.2536 31.8177 41.1624 31.9088C41.0712 31.9088 41.0712 32 40.9801 32ZM40.9801 31.5442V31.8177V32.0912H40.8889L40.9801 31.8177H41.0712H40.9801H41.0712C41.0712 31.8177 41.0712 31.8177 41.0712 31.7265V31.6353C41.0712 31.5442 40.9801 31.5442 40.9801 31.5442ZM40.9801 31.5442C40.9801 31.6353 40.9801 31.6353 40.9801 31.5442C40.9801 31.6353 40.9801 31.6353 40.9801 31.5442Z" fill="black" />
    </symbol>
</svg>
